<svg xmlns="http://www.w3.org/2000/svg" xmlns:xlink="http://www.w3.org/1999/xlink" xml:space="preserve" version="1.1" style="shape-rendering:geometricPrecision;text-rendering:geometricPrecision;image-rendering:optimizeQuality;" viewBox="0 0 237 348.75" x="0px" y="0px" fill-rule="evenodd" clip-rule="evenodd"><g><path class="fil0" d="M237 243l0 -27c0,-31 -26,-57 -57,-57l-123 0c-31,0 -57,26 -57,57l0 27c34,23 75,36 118,36 44,0 85,-13 119,-36z"/><path class="fil1" d="M118 0c36,0 65,29 65,65 0,36 -29,65 -65,65 -36,0 -65,-29 -65,-65 0,-36 29,-65 65,-65z"/></g></svg>
