<svg xmlns="http://www.w3.org/2000/svg" xmlns:xlink="http://www.w3.org/1999/xlink" version="1.1" x="0px" y="0px" viewBox="0 0 90 112.5" style="enable-background:new 0 0 90 90;" xml:space="preserve"><g><path d="M64.7,64.7l-2.3-6.2l5.1-1.8l-1.7-4.8l22.3-8.1l-3.6-9.9l3.5-1.3l-7.6-20.8L1,40.7l12.2,7.6c-0.9,1.9-0.8,4.7,0.3,7.6   c1.1,3.1,3.1,5.4,5.1,6.2l2.2,6.2l22.3-8.1l1.7,4.8l5.1-1.9l3.9,10.6c0.9,2.6,3.4,4.3,6.2,4.4v0H60c0,0,0,0,0,0c0,0,0,0,0.1,0h28.5   V64.7H64.7z M8.9,41.5l69.5-25.3l5.2,14.3L25.4,51.7L8.9,41.5z M22.9,63.8l-4.5-12.4l6.6,4.1L81.3,35l2.4,6.7L22.9,63.8z M49,60.5   l-2.5,0.9l-0.8-2.2l17.5-6.4L64,55l-7,2.6L49,60.5L49,60.5z M63.6,73c-0.4,0.9-1.2,1.7-2.2,2c-0.4,0.2-0.9,0.2-1.3,0.2   c-1.6,0-3.1-1-3.6-2.6l-3.9-10.6l4.2-1.5l3.1-1.1l3.8,10.6C64.1,71,64,72.1,63.6,73z M85.9,75.3H65.5c0.2-0.3,0.4-0.7,0.6-1.1   c0.8-1.6,0.8-3.4,0.2-5.1l-0.6-1.6h20.2V75.3z"/><circle cx="59.9" cy="71.4" r="1.9"/></g><text x="0" y="105" fill="#000000" font-size="5px" font-weight="bold" font-family="'Helvetica Neue', Helvetica, Arial-Unicode, Arial, Sans-serif">Created by Nico Ilk</text><text x="0" y="110" fill="#000000" font-size="5px" font-weight="bold" font-family="'Helvetica Neue', Helvetica, Arial-Unicode, Arial, Sans-serif">from the Noun Project</text></svg>