<svg xmlns:dc="http://purl.org/dc/elements/1.1/" xmlns:cc="http://creativecommons.org/ns#" xmlns:rdf="http://www.w3.org/1999/02/22-rdf-syntax-ns#" xmlns:svg="http://www.w3.org/2000/svg" xmlns="http://www.w3.org/2000/svg" xmlns:sodipodi="http://sodipodi.sourceforge.net/DTD/sodipodi-0.dtd" xmlns:inkscape="http://www.inkscape.org/namespaces/inkscape" version="1.1" x="0px" y="0px" viewBox="0 0 100 100"><g transform="translate(0,-952.36218)"><path style="font-size:medium;font-style:normal;font-variant:normal;font-weight:normal;font-stretch:normal;text-indent:0;text-align:start;text-decoration:none;line-height:normal;letter-spacing:normal;word-spacing:normal;text-transform:none;direction:ltr;block-progression:tb;writing-mode:lr-tb;text-anchor:start;baseline-shift:baseline;opacity:1;color:#4996FF;fill:#4996FF;fill-opacity:1;stroke:none;stroke-width:4.00000047999999970;marker:none;visibility:visible;display:inline;overflow:visible;enable-background:accumulate;font-family:Sans;-inkscape-font-specification:Sans" d="M 49.6875 21 A 2.0002002 2.0002002 0 0 0 49.34375 21.09375 L 5.34375 36.53125 A 2.0002002 2.0002002 0 0 0 5.34375 40.3125 L 22.125 46.1875 L 22.125 68.6875 A 2.0002002 2.0002002 0 0 0 23.5 70.59375 L 49.375 78.90625 A 2.0002002 2.0002002 0 0 0 50.625 78.90625 L 76.5 70.59375 A 2.0002002 2.0002002 0 0 0 77.875 68.6875 L 77.875 46.1875 L 83.3125 44.28125 A 2.0012813 2.0012813 0 1 0 82 40.5 L 50 51.75 L 12.03125 38.4375 L 50 25.09375 L 92 39.84375 L 92 55.125 A 2.0002002 2.0002002 0 1 0 96 55.125 L 96 38.40625 A 2.0002002 2.0002002 0 0 0 94.65625 36.53125 L 50.65625 21.09375 A 2.0002002 2.0002002 0 0 0 49.6875 21 z M 26.125 47.59375 L 49.34375 55.71875 A 2.0002002 2.0002002 0 0 0 50.65625 55.71875 L 73.875 47.59375 L 73.875 67.21875 L 50 74.90625 L 26.125 67.21875 L 26.125 47.59375 z " transform="translate(0,952.36218)"/></g></svg>