<svg xmlns="http://www.w3.org/2000/svg" xmlns:xlink="http://www.w3.org/1999/xlink" version="1.1" x="0px" y="0px" viewBox="0 0 100 125" enable-background="new 0 0 100 100" xml:space="preserve"><path d="M80.336,43.344c-0.782,3.633-2.654,6.852-5.249,9.322c-3.171-18.67-15.248-18.441-15.248-35.645  c0-3.909,0.438-7.682,1.196-11.304c-16.926,3.952-29.73,22.299-29.73,44.369c0,1.983,0.108,3.936,0.31,5.852  c-2.94-3.987-4.682-8.913-4.682-14.249c0-3.165,0.628-6.181,1.738-8.948c-8.07,6.333-13.272,16.155-13.272,27.21  c0,17.664,13.236,32.224,30.327,34.331c-3.628-2.854-6.067-8.076-6.067-14.061c0-9.041,6.844-18.985,10.345-31.041  c3.505,11.96,14.423,22,14.423,31.041c0,5.297-1.914,9.994-4.869,12.986c14.461-4.148,25.045-17.46,25.045-33.257  C84.602,53.925,83.052,48.271,80.336,43.344z" fill="#fff"/></svg>