<svg xmlns:dc="http://purl.org/dc/elements/1.1/" xmlns:cc="http://creativecommons.org/ns#" xmlns:rdf="http://www.w3.org/1999/02/22-rdf-syntax-ns#" xmlns:svg="http://www.w3.org/2000/svg" xmlns="http://www.w3.org/2000/svg" xmlns:sodipodi="http://sodipodi.sourceforge.net/DTD/sodipodi-0.dtd" xmlns:inkscape="http://www.inkscape.org/namespaces/inkscape" version="1.1" x="0px" y="0px" viewBox="0 0 100 125"><g transform="translate(0,-952.36218)"><path style="text-indent:0;text-transform:none;direction:ltr;block-progression:tb;baseline-shift:baseline;color:#000000;enable-background:accumulate;" d="m 34.79625,986.35968 a 1.0001,1.0001 0 0 0 -0.5,1.71875 l 14.28125,14.28127 -14.28125,14.2812 a 1.0054782,1.0054782 0 1 0 1.40625,1.4375 l 14.3125,-14.2812 14.28125,14.2812 a 1.0054782,1.0054782 0 1 0 1.40625,-1.4375 L 51.42125,1002.3597 65.7025,988.07843 a 1.0001,1.0001 0 0 0 -0.71875,-1.71875 1.0001,1.0001 0 0 0 -0.6875,0.28125 L 50.015,1000.9222 35.7025,986.64093 a 1.0001,1.0001 0 0 0 -0.71875,-0.28125 1.0001,1.0001 0 0 0 -0.1875,0 z" fill="#fff" fill-opacity="1" fill-rule="evenodd" stroke="none" marker="none" visibility="visible" display="inline" overflow="visible"/></g></svg>