<svg xmlns="http://www.w3.org/2000/svg" xmlns:xlink="http://www.w3.org/1999/xlink" xml:space="preserve" version="1.1" style="shape-rendering:geometricPrecision;text-rendering:geometricPrecision;image-rendering:optimizeQuality;" viewBox="0 0 295 295" x="0px" y="0px" fill-rule="evenodd" clip-rule="evenodd"><defs><style type="text/css">
   
    .fil0 {fill:white;fill-rule:nonzero}
   
  </style></defs><g><path class="fil0" d="M116 0c40,0 73,33 73,74 0,40 -33,73 -73,73 -41,0 -74,-33 -74,-73 0,-41 33,-74 74,-74zm0 20c-30,0 -54,24 -54,54 0,29 24,53 54,53 29,0 53,-24 53,-53 0,-30 -24,-54 -53,-54z"/><path class="fil0" d="M62 160l108 0c34,0 62,28 62,62l0 61c-78,0 -155,0 -232,0l0 -61c0,-34 28,-62 62,-62zm108 20l-108 0c-23,0 -42,19 -42,42l0 41 192 0 0 -41c0,-23 -19,-42 -42,-42z"/><polygon class="fil0" points="263,67 263,99 295,99 295,119 263,119 263,152 243,152 243,119 211,119 211,99 243,99 243,67 "/></g></svg>