<svg xmlns="http://www.w3.org/2000/svg" data-name="Layer 1" viewBox="0 0 24 24" x="0px" y="0px"><title>rounded</title><path d="M18,4H8A2,2,0,0,0,6,6V8H4.5a.5.5,0,0,0,0,1H6v2.5H4.5a.5.5,0,0,0,0,1H6V15H4.5a.5.5,0,0,0,0,1H6v2a2,2,0,0,0,2,2H18a2,2,0,0,0,2-2V6A2,2,0,0,0,18,4Zm1,14a1.00115,1.00115,0,0,1-1,1H8a1.00115,1.00115,0,0,1-1-1V6A1.00115,1.00115,0,0,1,8,5H18a1.00115,1.00115,0,0,1,1,1Zm-6-6a2,2,0,1,0-2-2A2,2,0,0,0,13,12Zm0-3a1,1,0,1,1-1,1A1.00115,1.00115,0,0,1,13,9Zm2,4H11a2,2,0,0,0-2,2v1a1,1,0,0,0,1,1h6a1,1,0,0,0,1-1V15A2,2,0,0,0,15,13Zm1,3H10V15a1.00115,1.00115,0,0,1,1-1h4a1.00115,1.00115,0,0,1,1,1Z"/></svg>