<svg xmlns="http://www.w3.org/2000/svg" data-name="Layer 1" viewBox="0 0 100 125" x="0px" y="0px"><title>B</title><path d="M50.00006,61.09875a4.304,4.304,0,0,0,4.304-4.304V27.24506a4.304,4.304,0,0,0-8.608,0V56.79474A4.304,4.304,0,0,0,50.00006,61.09875Z"/><path d="M50.00055,68.45142a4.304,4.304,0,1,0,4.304,4.304A4.304,4.304,0,0,0,50.00055,68.45142Z"/><path d="M50,95A45,45,0,1,0,5,50,45.05046,45.05046,0,0,0,50,95Zm0-83A38,38,0,1,1,12,50,38.04323,38.04323,0,0,1,50,12Z"/><text x="0" y="115" fill="#000000" font-size="5px" font-weight="bold" font-family="'Helvetica Neue', Helvetica, Arial-Unicode, Arial, Sans-serif">Created by Markus</text><text x="0" y="120" fill="#000000" font-size="5px" font-weight="bold" font-family="'Helvetica Neue', Helvetica, Arial-Unicode, Arial, Sans-serif">from the Noun Project</text></svg>