<svg xmlns="http://www.w3.org/2000/svg" fill="#b9b9b9" data-name="Layer 1" viewBox="0 0 100 100" x="0px" y="0px"><path d="M86.42,69.67l-8.64-8.76a1,1,0,0,1-.29-.71V39.89c0-.5,0-1,0-1.49a16.8,16.8,0,0,0-.23-2.58,11.07,11.07,0,0,0-.3-1.59A27,27,0,0,0,72.1,23.55a12.45,12.45,0,0,0-1-1.22c-.53-.63-1.12-1.28-1.75-1.92a29,29,0,0,0-13.27-7.29l-.13,0-2.39-.45h-.13a27.48,27.48,0,0,0-6.94,0H46.4L44,13.08l-.13,0a29,29,0,0,0-13.31,7.34c-.6.59-1.18,1.24-1.71,1.87a12.45,12.45,0,0,0-1,1.22,27,27,0,0,0-4.81,10.68,11.07,11.07,0,0,0-.3,1.59,16.8,16.8,0,0,0-.23,2.58c0,.48,0,1,0,1.49V60.2a1,1,0,0,1-.29.71l-8.64,8.76A2.05,2.05,0,0,0,13,71.08v4.53a2,2,0,0,0,2,2H37.65l.59,1.66a12.47,12.47,0,0,0,23.52,0l.59-1.66H85a2,2,0,0,0,2-2V71.08A2.05,2.05,0,0,0,86.42,69.67ZM50,82.6a7.5,7.5,0,0,1-7-5h14.1A7.5,7.5,0,0,1,50,82.6Zm32-10H18v-.3l8.92-9.07a2,2,0,0,0,.58-1.4v-22c0-.45,0-.9,0-1.32a11.49,11.49,0,0,1,.2-2.1,5.19,5.19,0,0,1,.2-1.1,22.25,22.25,0,0,1,4-8.93,8.92,8.92,0,0,1,.67-.85c.45-.55,1-1.1,1.45-1.6a24,24,0,0,1,11-6l2.12-.4a23.14,23.14,0,0,1,5.6,0l2.12.4a24,24,0,0,1,11,6c.5.5,1,1.05,1.45,1.6a8.92,8.92,0,0,1,.67.85,22.25,22.25,0,0,1,4,8.93,5.19,5.19,0,0,1,.2,1.1,11.49,11.49,0,0,1,.2,2.1c0,.42,0,.87,0,1.32v22a2,2,0,0,0,.58,1.4L82,72.31Z"/></svg>