<svg xmlns="http://www.w3.org/2000/svg" xmlns:xlink="http://www.w3.org/1999/xlink" version="1.1" x="0px" y="0px" viewBox="0 0 64 64" style="enable-background:new 0 0 64 64;" fill="white" xml:space="preserve"><g><g><path d="M44.8,1H19.2L1,19.2v25.7L19.2,63h25.7L63,44.8V19.2L44.8,1z M61,44L44,61H20L3,44V20L20,3h24l17,17V44z"/><path d="M20.8,5L5,20.8v22.4L20.8,59h22.4L59,43.2V20.8L43.2,5H20.8z M57,42.4L42.4,57H21.6L7,42.4V21.6L21.6,7h20.7L57,21.6V42.4    z"/><rect x="16.3" y="12.6" transform="matrix(0.7071 -0.7071 0.7071 0.7071 -3.9828 17.6152)" width="6" height="2"/><rect x="10.6" y="18.3" transform="matrix(0.7071 -0.7071 0.7071 0.7071 -9.6397 15.2721)" width="6" height="2"/><rect x="18.7" y="15.4" transform="matrix(0.7071 -0.7071 0.7071 0.7071 -5.5684 19.4438)" width="4" height="2"/><rect x="14.4" y="19.7" transform="matrix(0.707 -0.7072 0.7072 0.707 -9.8115 17.6883)" width="4" height="2"/><rect x="21.1" y="18.3" transform="matrix(0.7071 -0.7071 0.7071 0.7071 -7.1542 21.2721)" width="2" height="2"/><rect x="18.3" y="21.1" transform="matrix(0.7071 -0.7071 0.7071 0.7071 -9.9827 20.1008)" width="2" height="2"/><rect x="40.6" y="46.6" transform="matrix(0.7071 -0.7071 0.7071 0.7071 -19.6984 47.5562)" width="14" height="2"/><rect x="40.4" y="44.4" transform="matrix(0.7071 -0.7071 0.7071 0.7071 -18.8198 45.4351)" width="10" height="2"/><rect x="40.3" y="42.3" transform="matrix(0.7071 -0.7071 0.7071 0.7071 -17.9412 43.3135)" width="6" height="2"/><rect x="46.6" y="9.4" transform="matrix(0.7071 -0.7071 0.7071 0.7071 2.3013 38.4436)" width="2" height="14"/><rect x="46.6" y="18.7" transform="matrix(0.7071 -0.7071 0.7071 0.7071 -0.6984 39.6865)" width="2" height="4"/><rect x="42.3" y="14.4" transform="matrix(0.7072 -0.707 0.707 0.7072 1.0572 35.4398)" width="2" height="4"/><rect x="42.3" y="17.7" transform="matrix(0.7071 -0.7071 0.7071 0.7071 -1.9421 36.6835)" width="2" height="6"/><rect x="12.6" y="41.7" transform="matrix(0.7071 -0.7071 0.7071 0.7071 -27.6395 22.7279)" width="2" height="6"/><rect x="18.3" y="47.4" transform="matrix(0.707 -0.7072 0.7072 0.707 -29.9853 28.3904)" width="2" height="6"/><rect x="17.6" y="40.4" transform="matrix(0.7071 -0.7071 0.7071 0.7071 -26.6899 26.435)" width="2" height="10"/><rect x="18.3" y="40.9" transform="matrix(0.7071 -0.7071 0.7071 0.7071 -23.9826 25.8997)" width="2" height="2"/><rect x="21.1" y="43.7" transform="matrix(0.7071 -0.7071 0.7071 0.7071 -25.1544 28.728)" width="2" height="2"/><rect x="53" y="33" width="2" height="6"/><rect x="53" y="25" width="2" height="6"/><rect x="50" y="27" width="2" height="10"/><rect x="47" y="29" width="2" height="6"/><rect x="9" y="25" width="2" height="14"/><rect x="12" y="27" width="2" height="4"/><rect x="12" y="33" width="2" height="4"/><rect x="15" y="29" width="2" height="2"/><rect x="15" y="33" width="2" height="2"/><rect x="25" y="53" width="14" height="2"/><rect x="27" y="50" width="10" height="2"/><rect x="29" y="47" width="2" height="2"/><rect x="33" y="47" width="2" height="2"/><rect x="33" y="9" width="6" height="2"/><rect x="25" y="9" width="6" height="2"/><rect x="33" y="12" width="4" height="2"/><rect x="27" y="12" width="4" height="2"/><rect x="29" y="15" width="6" height="2"/><path d="M41.2,22.8c-5.1-5.1-13.3-5.1-18.4,0c-5.1,5.1-5.1,13.3,0,18.4c2.5,2.5,5.9,3.8,9.2,3.8s6.7-1.3,9.2-3.8    C46.3,36.1,46.3,27.9,41.2,22.8z M24.2,39.8c-4.3-4.3-4.3-11.3,0-15.6c2.1-2.1,5-3.2,7.8-3.2s5.6,1.1,7.8,3.2    c4.3,4.3,4.3,11.3,0,15.6C35.5,44.1,28.5,44.1,24.2,39.8z"/></g></g></svg>