<svg xmlns="http://www.w3.org/2000/svg" xmlns:xlink="http://www.w3.org/1999/xlink" version="1.1" x="0px" y="0px" viewBox="0 0 96 96" enable-background="new 0 0 96 96" xml:space="preserve"><path d="M30.575,56.111l8.499,14.722h17.868l8.5-14.722h16.993l8.933-15.472l-8.933-15.472H64.567l-8.499,14.722H39.932  l-8.499-14.722H13.566L4.634,40.639l8.933,15.472H30.575z M56.075,69.333H39.94l-8.066-13.972l8.066-13.972h16.128l8.07,13.978  L56.075,69.333z M65.434,26.667h16.134l8.066,13.972l-8.066,13.972H65.441l-8.07-13.978L65.434,26.667z M14.433,26.667h16.134  l8.066,13.972l-8.066,13.972H14.433L6.366,40.639L14.433,26.667z"/><rect x="7.682" y="36.242" transform="matrix(0.4999 -0.8661 0.8661 0.4999 -26.0894 28.8004)" width="8.423" height="1.5"/><rect x="57.664" y="48.247" transform="matrix(-0.866 0.5001 -0.5001 -0.866 135.0329 67.9316)" width="1.5" height="7.624"/></svg>