<svg xmlns:dc="http://purl.org/dc/elements/1.1/" xmlns:cc="http://creativecommons.org/ns#" xmlns:rdf="http://www.w3.org/1999/02/22-rdf-syntax-ns#" fill="white" xmlns:svg="http://www.w3.org/2000/svg" xmlns="http://www.w3.org/2000/svg" xmlns:sodipodi="http://sodipodi.sourceforge.net/DTD/sodipodi-0.dtd" xmlns:inkscape="http://www.inkscape.org/namespaces/inkscape" viewBox="0 0 32 32" version="1.1" x="0px" y="0px"><g transform="translate(0,-1020.3622)"><path style="color:#000000;font-style:normal;font-variant:normal;font-weight:normal;font-stretch:normal;font-size:medium;line-height:normal;font-family:sans-serif;text-indent:0;text-align:start;text-decoration:none;text-decoration-line:none;text-decoration-style:solid;text-decoration-color:#000000;letter-spacing:normal;word-spacing:normal;text-transform:none;direction:ltr;block-progression:tb;writing-mode:lr-tb;baseline-shift:baseline;text-anchor:start;white-space:normal;clip-rule:nonzero;display:inline;overflow:visible;visibility:visible;opacity:1;isolation:auto;mix-blend-mode:normal;color-interpolation:sRGB;color-interpolation-filters:linearRGB;solid-color:#000000;solid-opacity:1;fill:#000000;fill-opacity:1;fill-rule:evenodd;stroke:none;stroke-width:1px;stroke-linecap:round;stroke-linejoin:round;stroke-miterlimit:4;stroke-dasharray:none;stroke-dashoffset:0;stroke-opacity:1;color-rendering:auto;image-rendering:auto;shape-rendering:auto;text-rendering:auto;enable-background:accumulate" d="m 15.976562,1027.8633 c -0.06775,0 -0.134204,0.02 -0.195312,0.049 l -2.5,1.2227 c -0.171849,0.084 -0.281005,0.2579 -0.28125,0.449 0,1.2435 0.07191,2.2111 0.478516,3.0625 0.406609,0.8514 1.136122,1.5147 2.277343,2.1523 0.151698,0.085 0.336584,0.085 0.488282,0 1.14122,-0.6376 1.870734,-1.3009 2.277343,-2.1523 C 18.928093,1031.7951 19,1030.8275 19,1029.584 c -1.68e-4,-0.1912 -0.109336,-0.3655 -0.28125,-0.4492 l -2.5,-1.2227 c -0.07536,-0.036 -0.158631,-0.053 -0.242188,-0.049 z M 16,1028.918 l 1.992187,0.9765 c -0.01798,0.9934 -0.109316,1.7701 -0.373046,2.3223 -0.25761,0.5394 -0.829466,1.0661 -1.623047,1.5586 -0.793582,-0.4925 -1.357625,-1.0192 -1.615235,-1.5586 -0.263726,-0.5522 -0.319907,-1.3484 -0.33789,-2.3418 z"/><path style="color:#000000;font-style:normal;font-variant:normal;font-weight:normal;font-stretch:normal;font-size:medium;line-height:normal;font-family:sans-serif;text-indent:0;text-align:start;text-decoration:none;text-decoration-line:none;text-decoration-style:solid;text-decoration-color:#000000;letter-spacing:normal;word-spacing:normal;text-transform:none;direction:ltr;block-progression:tb;writing-mode:lr-tb;baseline-shift:baseline;text-anchor:start;white-space:normal;clip-rule:nonzero;display:inline;overflow:visible;visibility:visible;opacity:1;isolation:auto;mix-blend-mode:normal;color-interpolation:sRGB;color-interpolation-filters:linearRGB;solid-color:#000000;solid-opacity:1;fill:#000000;fill-opacity:1;fill-rule:nonzero;stroke:none;stroke-width:1;stroke-linecap:round;stroke-linejoin:round;stroke-miterlimit:4;stroke-dasharray:none;stroke-dashoffset:0;stroke-opacity:1;color-rendering:auto;image-rendering:auto;shape-rendering:auto;text-rendering:auto;enable-background:accumulate" d="m 15.974609,1040.8613 c -2.866702,0 -5.460591,0.3101 -7.3769528,0.8242 -0.9581809,0.2571 -1.747682,0.5605 -2.3359374,0.9336 -0.5882555,0.3732 -1.0371021,0.8607 -1.0371094,1.4922 7.3e-6,0.6315 0.4488539,1.121 1.0371094,1.4942 0.5882554,0.3731 1.3777565,0.6765 2.3359374,0.9336 1.9163618,0.5141 4.5102508,0.8222 7.3769528,0.8222 2.866703,0 5.460592,-0.3081 7.376953,-0.8222 0.958181,-0.2571 1.747682,-0.5605 2.335938,-0.9336 0.588256,-0.3732 1.037102,-0.8627 1.037109,-1.4942 -7e-6,-0.6315 -0.448853,-1.119 -1.037109,-1.4922 -0.588256,-0.3731 -1.377757,-0.6765 -2.335938,-0.9336 -1.916361,-0.5141 -4.51025,-0.8242 -7.376953,-0.8242 z m 0,1 c 2.794204,0 5.325734,0.3079 7.119141,0.7891 0.896704,0.2406 1.609489,0.5296 2.058594,0.8144 0.449104,0.2849 0.572264,0.5186 0.572265,0.6465 -1e-6,0.1279 -0.123161,0.3636 -0.572265,0.6485 -0.449105,0.2848 -1.16189,0.5738 -2.058594,0.8144 -1.793407,0.4812 -4.324937,0.7871 -7.119141,0.7871 -2.794203,0 -5.32378,-0.3059 -7.1171871,-0.7871 -0.8967035,-0.2406 -1.6094893,-0.5296 -2.0585938,-0.8144 -0.4491045,-0.2849 -0.5742172,-0.5206 -0.5742187,-0.6485 1.5e-6,-0.1279 0.1251142,-0.3616 0.5742187,-0.6465 0.4491045,-0.2848 1.1618903,-0.5738 2.0585938,-0.8144 1.7934071,-0.4812 4.3229841,-0.7891 7.1171871,-0.7891 z"/><path style="color:#000000;font-style:normal;font-variant:normal;font-weight:normal;font-stretch:normal;font-size:medium;line-height:normal;font-family:sans-serif;text-indent:0;text-align:start;text-decoration:none;text-decoration-line:none;text-decoration-style:solid;text-decoration-color:#000000;letter-spacing:normal;word-spacing:normal;text-transform:none;direction:ltr;block-progression:tb;writing-mode:lr-tb;baseline-shift:baseline;text-anchor:start;white-space:normal;clip-rule:nonzero;display:inline;overflow:visible;visibility:visible;opacity:1;isolation:auto;mix-blend-mode:normal;color-interpolation:sRGB;color-interpolation-filters:linearRGB;solid-color:#000000;solid-opacity:1;fill:#000000;fill-opacity:1;fill-rule:nonzero;stroke:none;stroke-width:0.99999994;stroke-linecap:butt;stroke-linejoin:round;stroke-miterlimit:4;stroke-dasharray:none;stroke-dashoffset:0;stroke-opacity:1;color-rendering:auto;image-rendering:auto;shape-rendering:auto;text-rendering:auto;enable-background:accumulate" d="m 16,1035.8945 c -2.669658,0 -5.086538,0.3954 -6.8808594,1.0567 -0.8971605,0.3306 -1.6410228,0.7258 -2.1894531,1.2031 -0.5484303,0.4773 -0.9185079,1.0706 -0.9199219,1.7363 a 0.50004997,0.50004997 0 0 0 0,0.01 l 0.025391,3.0039 1,-0.01 -0.025391,-2.9961 c 6.361e-4,-0.2995 0.1635924,-0.6272 0.5761719,-0.9863 0.4125795,-0.3591 1.0590882,-0.7155 1.8789063,-1.0176 1.6396362,-0.6042 3.9649272,-0.995 6.5351562,-0.9961 2.570362,0 4.899428,0.3874 6.542969,0.9903 0.82177,0.3014 1.469643,0.6605 1.884765,1.0195 0.415122,0.359 0.579683,0.6849 0.582032,0.9844 l 0.02539,3.0117 1,-0.01 -0.02539,-3.0097 c -0.0052,-0.6658 -0.377041,-1.2581 -0.927735,-1.7344 -0.550693,-0.4763 -1.296453,-0.8695 -2.195312,-1.1992 -1.797718,-0.6595 -4.217157,-1.0528 -6.886719,-1.0528 z"/><path style="color:#000000;font-style:normal;font-variant:normal;font-weight:normal;font-stretch:normal;font-size:medium;line-height:normal;font-family:sans-serif;text-indent:0;text-align:start;text-decoration:none;text-decoration-line:none;text-decoration-style:solid;text-decoration-color:#000000;letter-spacing:normal;word-spacing:normal;text-transform:none;direction:ltr;block-progression:tb;writing-mode:lr-tb;baseline-shift:baseline;text-anchor:start;white-space:normal;clip-rule:nonzero;display:inline;overflow:visible;visibility:visible;opacity:1;isolation:auto;mix-blend-mode:normal;color-interpolation:sRGB;color-interpolation-filters:linearRGB;solid-color:#000000;solid-opacity:1;fill:#000000;fill-opacity:1;fill-rule:evenodd;stroke:none;stroke-width:1px;stroke-linecap:butt;stroke-linejoin:round;stroke-miterlimit:4;stroke-dasharray:none;stroke-dashoffset:0;stroke-opacity:1;color-rendering:auto;image-rendering:auto;shape-rendering:auto;text-rendering:auto;enable-background:accumulate" d="m 15.994141,1025.3613 a 0.50005,0.50005 0 0 0 -0.183594,0.039 l -11.0000001,4.5 a 0.50005,0.50005 0 0 0 -0.2578125,0.2383 l -3,6 a 0.50005,0.50005 0 0 0 0.076172,0.5586 l 4.5,5 0.7421876,-0.67 -4.2714844,-4.7461 2.7636718,-5.5273 L 16,1026.4023 l 10.636719,4.3516 2.763672,5.5273 -4.271485,4.7461 0.742188,0.67 4.5,-5 a 0.50005,0.50005 0 0 0 0.07617,-0.5586 l -3,-6 a 0.50005,0.50005 0 0 0 -0.257813,-0.2383 l -11,-4.5 a 0.50005,0.50005 0 0 0 -0.195312,-0.039 z"/><path style="color:#000000;font-style:normal;font-variant:normal;font-weight:normal;font-stretch:normal;font-size:medium;line-height:normal;font-family:sans-serif;text-indent:0;text-align:start;text-decoration:none;text-decoration-line:none;text-decoration-style:solid;text-decoration-color:#000000;letter-spacing:normal;word-spacing:normal;text-transform:none;direction:ltr;block-progression:tb;writing-mode:lr-tb;baseline-shift:baseline;text-anchor:start;white-space:normal;clip-rule:nonzero;display:inline;overflow:visible;visibility:visible;opacity:1;isolation:auto;mix-blend-mode:normal;color-interpolation:sRGB;color-interpolation-filters:linearRGB;solid-color:#000000;solid-opacity:1;fill:#000000;fill-opacity:1;fill-rule:nonzero;stroke:none;stroke-width:0.99999994;stroke-linecap:butt;stroke-linejoin:round;stroke-miterlimit:4;stroke-dasharray:none;stroke-dashoffset:0;stroke-opacity:1;color-rendering:auto;image-rendering:auto;shape-rendering:auto;text-rendering:auto;enable-background:accumulate" d="m 15.986328,1038.248 c -2.670789,0 -5.079185,0.4053 -6.8652342,1.0762 -0.8930248,0.3355 -1.6332662,0.7358 -2.1777344,1.2168 -0.5444683,0.481 -0.9087456,1.076 -0.9101563,1.7402 l 1,0 c 6.393e-4,-0.301 0.1623832,-0.6301 0.5722657,-0.9922 0.4098824,-0.3621 1.0521122,-0.7251 1.8671874,-1.0312 1.6301508,-0.6124 3.9445718,-1.0107 6.5136718,-1.0118 2.56887,0 4.90138,0.3996 6.548828,1.0137 0.823724,0.3071 1.473289,0.6696 1.890625,1.0332 0.417336,0.3637 0.583594,0.6953 0.585938,0.9942 l 1,-0.01 c -0.0052,-0.6664 -0.376325,-1.2597 -0.927735,-1.7402 -0.551409,-0.4805 -1.30036,-0.881 -2.201172,-1.2168 -1.801622,-0.6716 -4.22543,-1.0762 -6.896484,-1.0762 z"/></g></svg>