<svg xmlns="http://www.w3.org/2000/svg" xmlns:xlink="http://www.w3.org/1999/xlink" version="1.1" x="0px" y="0px" viewBox="0 0 89.995 89.995" style="enable-background:new 0 0 89.995 90;" xml:space="preserve"><g><g><path d="M29.865,49.166c-6.049,0-10.97,4.921-10.97,10.967c0,6.049,4.921,10.97,10.97,10.97c6.047,0,10.968-4.921,10.968-10.97    C40.833,54.087,35.913,49.166,29.865,49.166z M29.865,69.395c-5.106,0-9.262-4.154-9.262-9.262c0-5.105,4.156-9.259,9.262-9.259    c5.106,0,9.26,4.153,9.26,9.259C39.125,65.24,34.972,69.395,29.865,69.395z"/><path d="M59.014,55.605l-8.088-1.322c-0.477-1.721-1.162-3.376-2.039-4.928l4.715-6.726c0.239-0.341,0.199-0.801-0.095-1.095    l-5.13-5.124c-0.297-0.301-0.764-0.337-1.103-0.091l-6.626,4.768c-1.563-0.894-3.228-1.588-4.963-2.064l-1.411-8.051    c-0.072-0.41-0.425-0.707-0.841-0.707h-7.255c-0.419,0-0.776,0.303-0.842,0.717l-1.308,8.014c-1.74,0.475-3.408,1.158-4.973,2.042    l-6.608-4.718c-0.342-0.246-0.807-0.21-1.101,0.091l-5.129,5.124c-0.294,0.294-0.334,0.754-0.097,1.095l4.651,6.649    c-0.899,1.578-1.597,3.256-2.079,5.001l-7.979,1.325C0.302,55.675,0,56.032,0,56.449v7.253c0,0.414,0.297,0.768,0.706,0.841    l7.976,1.411c0.48,1.745,1.178,3.424,2.077,5.005l-4.709,6.586c-0.244,0.34-0.206,0.804,0.09,1.102l5.13,5.131    c0.293,0.294,0.75,0.334,1.094,0.097l6.659-4.664c1.57,0.888,3.242,1.578,4.979,2.055l1.335,8.021    C25.405,89.696,25.762,90,26.179,90h7.255c0.414,0,0.769-0.297,0.841-0.704l1.428-8.058c1.736-0.483,3.399-1.181,4.958-2.075    l6.708,4.711c0.339,0.237,0.799,0.197,1.095-0.097l5.126-5.131c0.297-0.298,0.333-0.765,0.089-1.104l-4.783-6.644    c0.881-1.558,1.563-3.216,2.035-4.938l8.092-1.418c0.409-0.07,0.708-0.427,0.708-0.841v-7.253    C59.729,56.032,59.426,55.675,59.014,55.605z M58.021,62.985l-7.926,1.388c-0.334,0.057-0.601,0.307-0.683,0.637    c-0.478,1.932-1.241,3.784-2.269,5.499c-0.176,0.293-0.16,0.664,0.04,0.94l4.683,6.503l-4.105,4.11l-6.571-4.614    c-0.279-0.19-0.647-0.21-0.935-0.03c-1.709,1.041-3.563,1.818-5.508,2.309c-0.327,0.08-0.574,0.348-0.632,0.678l-1.398,7.887    h-5.815l-1.306-7.854c-0.055-0.337-0.307-0.607-0.639-0.69c-1.95-0.478-3.813-1.248-5.537-2.282    c-0.292-0.177-0.656-0.156-0.931,0.03l-6.521,4.567l-4.11-4.113l4.611-6.446c0.198-0.277,0.213-0.647,0.037-0.938    c-1.048-1.735-1.825-3.606-2.309-5.562c-0.082-0.327-0.347-0.574-0.681-0.635l-7.809-1.384v-5.813l7.811-1.298    c0.335-0.057,0.605-0.307,0.689-0.637c0.487-1.955,1.265-3.824,2.309-5.559c0.175-0.287,0.164-0.654-0.03-0.931l-4.554-6.513    l4.11-4.107l6.469,4.617c0.275,0.201,0.644,0.214,0.934,0.041c1.72-1.031,3.583-1.796,5.54-2.272    c0.332-0.084,0.584-0.354,0.639-0.694l1.279-7.847h5.812l1.381,7.884c0.058,0.334,0.307,0.601,0.636,0.681    c1.945,0.483,3.803,1.258,5.518,2.299c0.293,0.18,0.666,0.163,0.942-0.037l6.49-4.667l4.108,4.104l-4.619,6.586    c-0.193,0.276-0.207,0.641-0.033,0.931c1.024,1.705,1.79,3.554,2.273,5.491c0.083,0.331,0.355,0.581,0.69,0.638l7.918,1.295    V62.985z"/><path d="M70.895,14.527c-1.059-0.443-2.176-0.667-3.314-0.667c-3.474,0-6.584,2.068-7.924,5.268    c-1.827,4.374,0.24,9.419,4.607,11.244c1.059,0.443,2.174,0.667,3.313,0.667c3.475,0,6.584-2.068,7.924-5.271    C77.328,21.4,75.264,16.359,70.895,14.527z M73.926,25.107c-1.074,2.565-3.564,4.224-6.35,4.224c-0.91,0-1.803-0.181-2.652-0.534    c-3.5-1.465-5.156-5.505-3.693-9.008c1.074-2.565,3.566-4.221,6.35-4.221c0.912,0,1.805,0.18,2.654,0.534    C73.734,17.57,75.391,21.61,73.926,25.107z"/><path d="M84.379,24.439c0.151-1.287,0.156-2.589,0.014-3.88l5.204-3.276c0.351-0.224,0.492-0.664,0.335-1.048l-2.105-5.135    c-0.158-0.387-0.573-0.617-0.984-0.507l-5.955,1.381c-0.794-1.018-1.715-1.948-2.749-2.778l1.354-5.969    c0.092-0.407-0.12-0.817-0.502-0.978l-5.119-2.143c-0.397-0.174-0.834-0.017-1.055,0.334L69.598,5.6    c-1.299-0.157-2.608-0.167-3.908-0.027l-3.197-5.168c-0.221-0.354-0.662-0.5-1.048-0.34l-5.134,2.095    c-0.385,0.157-0.6,0.567-0.512,0.972l1.289,5.945c-1.029,0.804-1.967,1.734-2.797,2.772l-5.896-1.395    c-0.412-0.107-0.824,0.116-0.984,0.5l-2.139,5.114c-0.16,0.384-0.023,0.824,0.324,1.048l5.104,3.297    c-0.156,1.294-0.16,2.615-0.01,3.934l-5.156,3.183c-0.355,0.221-0.5,0.664-0.342,1.051l2.102,5.142    c0.156,0.384,0.565,0.591,0.973,0.511l5.952-1.298c0.811,1.027,1.736,1.955,2.763,2.772l-1.395,5.929    c-0.098,0.407,0.116,0.824,0.502,0.984l5.116,2.135c0.38,0.167,0.823,0.023,1.046-0.323l3.32-5.155    c1.297,0.153,2.615,0.15,3.906-0.003l3.273,5.194c0.16,0.257,0.437,0.4,0.722,0.4c0.108,0,0.219-0.02,0.325-0.063l5.13-2.108    c0.388-0.16,0.601-0.577,0.507-0.984l-1.385-5.969c1.02-0.804,1.941-1.722,2.75-2.735l6.004,1.357    c0.4,0.08,0.815-0.123,0.976-0.504l2.139-5.114c0.161-0.387,0.021-0.834-0.335-1.055L84.379,24.439z M86.48,32.541l-5.837-1.321    c-0.334-0.073-0.673,0.05-0.872,0.323c-0.901,1.208-1.973,2.275-3.186,3.17c-0.273,0.203-0.401,0.547-0.324,0.881l1.344,5.798    l-3.793,1.559l-3.184-5.052c-0.156-0.253-0.432-0.4-0.723-0.4c-0.043,0-0.086,0.004-0.129,0.011    c-1.48,0.233-3.014,0.227-4.506,0.007c-0.328-0.054-0.664,0.1-0.845,0.38l-3.225,5.008l-3.788-1.581l1.354-5.759    c0.078-0.334-0.048-0.678-0.32-0.881c-1.22-0.907-2.296-1.988-3.194-3.206c-0.202-0.271-0.544-0.407-0.869-0.327l-5.782,1.261    l-1.557-3.807l5.011-3.093c0.291-0.18,0.446-0.514,0.398-0.851c-0.227-1.525-0.223-3.053,0.01-4.541    c0.051-0.33-0.098-0.664-0.381-0.848l-4.961-3.203l1.583-3.786l5.727,1.354c0.331,0.083,0.677-0.047,0.881-0.32    c0.925-1.234,2.011-2.309,3.228-3.196c0.273-0.2,0.404-0.54,0.332-0.871l-1.252-5.778l3.799-1.552l3.107,5.021    c0.176,0.29,0.52,0.457,0.848,0.394c1.49-0.21,3.027-0.207,4.52,0.033c0.35,0.044,0.678-0.104,0.858-0.39l3.128-5.015l3.788,1.584    l-1.315,5.799c-0.076,0.331,0.049,0.671,0.318,0.875c1.234,0.927,2.303,2.008,3.174,3.213c0.202,0.279,0.547,0.413,0.887,0.33    l5.789-1.342l1.557,3.797l-5.058,3.184c-0.285,0.18-0.438,0.51-0.39,0.847c0.215,1.495,0.209,3.007-0.018,4.491    c-0.051,0.337,0.102,0.674,0.393,0.854l5.057,3.163L86.48,32.541z"/></g></g></svg>