<svg xmlns="http://www.w3.org/2000/svg" xmlns:xlink="http://www.w3.org/1999/xlink" version="1.1" x="0px" y="0px" viewBox="0 0 100 100" enable-background="new 0 0 100 100" fill="#505050" xml:space="preserve"><path d="M84.875,11.375h-69.75c-3.998,0-7.25,3.252-7.25,7.25v62.75c0,3.998,3.252,7.25,7.25,7.25h69.75  c3.998,0,7.25-3.252,7.25-7.25v-62.75C92.125,14.627,88.873,11.375,84.875,11.375z M15.125,17.875h69.75  c0.413,0,0.75,0.337,0.75,0.75v12.25h-71.25v-12.25C14.375,18.212,14.712,17.875,15.125,17.875z M14.375,81.375v-44H29.5v44.75  H15.125C14.712,82.125,14.375,81.788,14.375,81.375z M84.875,82.125H36v-44.75h49.625v44C85.625,81.788,85.288,82.125,84.875,82.125  z"/></svg>