<svg xmlns="http://www.w3.org/2000/svg" xmlns:xlink="http://www.w3.org/1999/xlink" version="1.1" x="0px" y="0px" fill="white" viewBox="0 0 100 100" enable-background="new 0 0 100 100" xml:space="preserve"><path d="M92.5,82.5H75V15c0-1.4-1.1-2.5-2.5-2.5h-45c-1.4,0-2.5,1.1-2.5,2.5v67.5H7.5c-3.2,0-3.2,5,0,5h20c0.2,0,0.3,0,0.5,0l0,0  c0,0,0,0,0,0l32.5-6.2c1.2-0.2,2-1.3,2-2.5V25c0-1.2-0.8-2.2-1.9-2.4l-21.9-5.1H70V85c0,1.4,1.1,2.5,2.5,2.5h20  C95.7,87.5,95.7,82.5,92.5,82.5z M57.5,27v49.7L30,82V20.6L57.5,27z"/><circle cx="52.5" cy="55" r="2.5"/></svg>