<svg xmlns="http://www.w3.org/2000/svg" xmlns:xlink="http://www.w3.org/1999/xlink" version="1.1" x="0px" y="0px" fill="#c0c2d0" viewBox="0 0 100 100" style="enable-background:new 0 0 100 100;" xml:space="preserve"><path d="M7,60.8c-0.7,0-1.3-0.5-1.5-1.2c-0.8-3.3-1.1-6.7-1.1-10c0-9.7,3-18.9,8.7-26.7c0.5-0.7,1.4-0.8,2.1-0.3  c0.7,0.5,0.8,1.4,0.3,2.1c-5.3,7.3-8.1,15.9-8.1,25c0,3.2,0.4,6.3,1.1,9.4c0.2,0.8-0.3,1.6-1.1,1.8C7.2,60.8,7.1,60.8,7,60.8z"/><path d="M18.2,20.7c-0.4,0-0.7-0.1-1-0.4c-0.6-0.6-0.6-1.5,0-2.1c1.6-1.6,3.3-3.2,5.1-4.5c0.7-0.5,1.6-0.4,2.1,0.3s0.4,1.6-0.3,2.1  c-1.7,1.3-3.3,2.7-4.7,4.2C18.9,20.6,18.6,20.7,18.2,20.7z"/><path d="M93.7,51.1c-0.8,0-1.5-0.7-1.5-1.5c0-23.4-19-42.4-42.4-42.4c-6.9,0-13.8,1.7-19.8,5c-0.7,0.4-1.6,0.1-2-0.6  c-0.4-0.7-0.1-1.6,0.6-2c6.5-3.4,13.8-5.3,21.2-5.3c25,0,45.4,20.4,45.4,45.4C95.2,50.4,94.5,51.1,93.7,51.1z"/><path d="M82.4,80.4c-0.1,0-0.2,0-0.3,0c-0.8-0.1-1.4-0.9-1.2-1.7c3.1-17.3,2.5-29.6,2.4-31c-0.5-9.4-5-18.1-12.3-24.1  c-0.6-0.5-0.7-1.5-0.2-2.1s1.5-0.7,2.1-0.2c7.9,6.5,12.8,16,13.4,26.2c0.1,1.4,0.7,14.1-2.5,31.7C83.7,79.9,83.1,80.4,82.4,80.4z"/><path d="M12.3,73.7c-0.1,0-0.2,0-0.4,0c-0.8-0.2-1.3-1-1.1-1.8c2.9-11.4,2.5-20,2.5-20.1c-1.2-20.1,14.3-37.5,34.4-38.6  c5.4-0.3,10.7,0.5,15.7,2.5c0.8,0.3,1.1,1.2,0.8,1.9c-0.3,0.8-1.2,1.1-1.9,0.8c-4.6-1.8-9.4-2.6-14.4-2.3  c-18.5,1.1-32.7,17-31.6,35.5c0,0.1,0.4,9.1-2.6,21C13.5,73.3,12.9,73.7,12.3,73.7z"/><path d="M71.6,89.2c-0.1,0-0.2,0-0.4,0c-0.8-0.2-1.3-1-1.1-1.8c1.5-5.8,2.6-11.8,3.4-17.8c0.1-0.8,0.8-1.4,1.7-1.3  c0.8,0.1,1.4,0.9,1.3,1.7c-0.8,6-2,12.1-3.5,18C72.9,88.7,72.2,89.2,71.6,89.2z"/><path d="M76,59.7L76,59.7c-0.9,0-1.5-0.7-1.5-1.6c0.3-5.8,0.1-9.5,0.1-9.9C73.8,34.5,62,24.1,48.4,24.8c-2.6,0.2-5.2,0.7-7.6,1.7  c-0.8,0.3-1.6-0.1-1.9-0.8c-0.3-0.8,0.1-1.6,0.8-1.9c2.7-1.1,5.6-1.7,8.6-1.9C63.5,21,76.7,32.7,77.6,48c0,0.7,0.2,4.4-0.1,10.3  C77.5,59.1,76.8,59.7,76,59.7z"/><path d="M18.8,82.2c-0.2,0-0.3,0-0.5-0.1c-0.8-0.3-1.2-1.1-1-1.9c5.2-15.9,4.6-28.9,4.6-29c-0.5-8.1,2.6-16.1,8.5-21.7  c0.6-0.6,1.5-0.6,2.1,0c0.6,0.6,0.6,1.5,0,2.1c-5.3,5-8,12.1-7.6,19.4c0,0.1,0.7,13.6-4.8,30.1C20.1,81.8,19.5,82.2,18.8,82.2z"/><path d="M61.3,93.4c-0.1,0-0.3,0-0.5-0.1c-0.8-0.2-1.2-1.1-1-1.9c4.5-14.4,6.7-30,6-42.8c-0.2-2.8-1-5.5-2.6-7.8  c-0.5-0.7-0.3-1.6,0.4-2.1c0.7-0.5,1.6-0.3,2.1,0.4c1.8,2.8,2.8,6,3,9.3c0.8,13.1-1.5,29.1-6.1,43.9C62.5,93,61.9,93.4,61.3,93.4z"/><path d="M26.1,88c-0.2,0-0.3,0-0.5-0.1c-0.8-0.3-1.2-1.1-0.9-1.9c6.8-18.6,6.1-34.7,6.1-35.4c-0.5-10.5,7.6-19.4,18-20  c2.9-0.2,5.8,0.3,8.5,1.5c0.8,0.3,1.1,1.2,0.8,2s-1.2,1.1-2,0.8c-2.3-1-4.7-1.4-7.1-1.2c-8.8,0.5-15.6,8-15.2,16.8  c0.1,1.8,0.6,17.7-6.2,36.6C27.3,87.6,26.7,88,26.1,88z"/><path d="M51.3,94.9c-0.2,0-0.3,0-0.5-0.1c-0.8-0.3-1.2-1.1-0.9-1.9c8.2-23.8,7.2-43.5,7.2-43.7c-0.2-4-3.6-7-7.7-6.8  c-4,0.2-7.1,3.7-6.8,7.7c0,0.4,0.1,2.7,0,6.3c0,0.8-0.7,1.5-1.6,1.4c-0.8,0-1.5-0.7-1.4-1.6c0.1-3.5,0-5.6,0-6  c-0.3-5.6,4-10.5,9.7-10.8s10.5,4,10.8,9.7c0,0.2,1.1,20.4-7.3,44.9C52.5,94.5,51.9,94.9,51.3,94.9z"/><path d="M34.1,92c-0.2,0-0.4,0-0.5-0.1c-0.8-0.3-1.2-1.2-0.9-1.9c2.9-7.7,4.9-15.9,6-24.4c0.1-0.8,0.9-1.4,1.7-1.3s1.4,0.9,1.3,1.7  c-1.1,8.7-3.2,17.1-6.2,25.1C35.2,91.7,34.7,92,34.1,92z"/><path d="M42.4,94.3c-0.2,0-0.3,0-0.5-0.1c-0.8-0.3-1.2-1.1-0.9-1.9c0.7-1.8,1.3-3.8,1.9-5.7c0.2-0.8,1.1-1.2,1.9-1  c0.8,0.2,1.2,1.1,1,1.9c-0.6,2-1.3,3.9-2,5.8C43.6,93.9,43,94.3,42.4,94.3z"/><path d="M46.8,79.4c-0.1,0-0.2,0-0.3,0c-0.8-0.2-1.3-1-1.1-1.8c3.6-15.9,3-27.7,3-27.9c0-0.8,0.6-1.5,1.4-1.6c0.8,0,1.5,0.6,1.6,1.4  c0,0.5,0.7,12.4-3,28.7C48.1,78.9,47.5,79.4,46.8,79.4z"/></svg>