<svg xmlns:dc="http://purl.org/dc/elements/1.1/" xmlns:cc="http://creativecommons.org/ns#" xmlns:rdf="http://www.w3.org/1999/02/22-rdf-syntax-ns#" xmlns:svg="http://www.w3.org/2000/svg" fill="#505050" xmlns="http://www.w3.org/2000/svg" xmlns:sodipodi="http://sodipodi.sourceforge.net/DTD/sodipodi-0.dtd" xmlns:inkscape="http://www.inkscape.org/namespaces/inkscape" version="1.1" x="0px" y="0px" viewBox="0 0 100 100"><g transform="translate(0,-952.36218)"><path style="text-indent:0;text-transform:none;direction:ltr;block-progression:tb;baseline-shift:baseline;color:#000000;enable-background:accumulate;" d="m 92.001896,959.36462 a 1.0027775,0.99742966 0 0 1 1.00273,0.99737 l 0,84.00041 a 1.0027775,0.99742966 0 0 1 -1.00273,0.9974 l -42.085259,0 a 1.0027775,0.99742966 0 1 1 0,-1.9948 l 41.082539,0 0,-82.00563 -41.212649,0 a 1.0027775,0.99742966 0 1 1 0,-1.99474 l 42.215369,0 z" fill="#000000" fill-opacity="1" fill-rule="evenodd" stroke="none" marker="none" visibility="visible" display="inline" overflow="visible"/><path style="text-indent:0;text-transform:none;direction:ltr;block-progression:tb;baseline-shift:baseline;color:#000000;enable-background:accumulate;" d="m 30.130637,981.26486 a 1.0027775,0.99742966 0 0 1 0.59375,1.7188 l -20.3125,20.18754 65.625,0 a 1.0001,1.0001 0 1 1 0,2 l -65.625,0 20.3125,20.1875 a 1.0027775,0.99742966 0 1 1 -1.40625,1.4062 l -22.0312503,-21.875 a 1.0027775,0.99742966 0 0 1 0,-1.4062 L 29.318137,981.57736 a 1.0027775,0.99742966 0 0 1 0.71875,-0.3125 1.0027775,0.99742966 0 0 1 0.0937,0 z" fill="#000000" fill-opacity="1" fill-rule="evenodd" stroke="none" marker="none" visibility="visible" display="inline" overflow="visible"/></g></svg>