<svg xmlns="http://www.w3.org/2000/svg" xmlns:xlink="http://www.w3.org/1999/xlink" version="1.1" preserveAspectRatio="none" x="0px" y="0px" viewBox="0 0 100 100"><defs><g id="a"><path fill="white" stroke="none" d=" M 50.6 21.4 Q 49.7 20.5 48.45 20.5 L 17.75 20.5 Q 9.1 20.5 9.1 29.15 L 9.1 82.05 Q 9.1 90.7 17.75 90.7 L 70.6 90.7 Q 79.25 90.7 79.25 82.05 L 79.25 52.5 Q 79.25 51.25 78.4 50.4 77.5 49.5 76.25 49.5 75 49.5 74.15 50.4 73.25 51.25 73.25 52.5 L 73.25 82.05 Q 73.25 84.7 70.6 84.7 L 17.75 84.7 Q 15.1 84.7 15.1 82.05 L 15.1 29.15 Q 15.1 26.5 17.75 26.5 L 48.45 26.5 Q 49.7 26.5 50.6 25.65 51.45 24.75 51.45 23.5 51.45 22.25 50.6 21.4 M 90.95 26.05 Q 90.95 19.1 86.1 14.25 81.2 9.35 74.25 9.35 67.3 9.35 62.5 14.25 L 62.5 14.2 Q 58.5 18.1 57.75 23.4 L 57.75 23.45 Q 57.55 24.75 57.55 26.05 57.55 33 62.5 37.95 67.3 42.75 74.25 42.75 75.35 42.75 76.35 42.65 82 42 86.1 37.95 L 86.1 37.9 Q 90.95 33 90.95 26.05 M 81.85 18.5 Q 84.95 21.6 84.95 26.05 84.95 30.5 81.85 33.7 79.25 36.3 75.65 36.7 L 75.6 36.7 Q 74.95 36.75 74.25 36.75 69.8 36.75 66.75 33.7 63.55 30.5 63.55 26.05 63.55 25.15 63.7 24.25 L 63.7 24.3 Q 64.2 21 66.7 18.5 L 66.75 18.45 Q 69.8 15.35 74.25 15.35 78.7 15.35 81.85 18.5 Z"/></g></defs><g transform="matrix( 1, 0, 0, 1, 0,0) "><use xlink:href="#a"/></g></svg>