<svg xmlns="http://www.w3.org/2000/svg" xmlns:xlink="http://www.w3.org/1999/xlink" version="1.1" x="0px" y="0px" fill="white" viewBox="0 0 100 100" enable-background="new 0 0 100 100" xml:space="preserve"><path d="M96.013,45.304c-0.001-0.007,0.001-0.013,0-0.02c-0.001-0.005-0.003-0.01-0.003-0.015  c-1.055-10.33-5.53-19.657-12.263-26.847c-0.028-0.037-0.04-0.082-0.072-0.117c-0.035-0.037-0.082-0.052-0.12-0.085  C75.12,9.319,63.202,3.75,50,3.75c-7.088,0-13.806,1.607-19.816,4.47c-0.057,0.02-0.115,0.035-0.171,0.062  c-0.049,0.023-0.09,0.055-0.135,0.082C14.428,15.86,3.75,31.706,3.75,50c0,25.502,20.748,46.25,46.25,46.25S96.25,75.502,96.25,50  C96.25,48.415,96.169,46.849,96.013,45.304z M82.481,21.489c5.468,6.222,9.178,14.017,10.356,22.613l-38.583,3.954L82.481,21.489z   M80.429,19.3L50.466,47.501l-17.784-37.12C37.988,8.052,43.844,6.75,50,6.75C61.855,6.75,72.608,11.548,80.429,19.3z M50,93.25  C26.152,93.25,6.75,73.848,6.75,50c0-16.626,9.437-31.082,23.229-38.318l18.668,38.967c0.065,0.138,0.152,0.259,0.252,0.367  c0.003,0.004,0.004,0.009,0.008,0.013c0.084,0.089,0.178,0.162,0.275,0.226c0.025,0.017,0.052,0.028,0.078,0.043  c0.086,0.049,0.175,0.089,0.267,0.119c0.033,0.012,0.065,0.022,0.1,0.031c0.122,0.031,0.245,0.052,0.37,0.053  c0.001,0,0.001,0,0.002,0c0,0,0,0,0.001,0l0,0l0,0c0.052,0,0.102-0.003,0.153-0.008l42.987-4.405  C93.205,48.051,93.25,49.02,93.25,50C93.25,73.848,73.848,93.25,50,93.25z"/></svg>