<svg xmlns="http://www.w3.org/2000/svg" data-name="Layer 2" viewBox="0 0 100 100" x="0px" fill="white" y="0px"><title>Padlock Icons</title><path d="M75.9,38.21H75.42V32H75.3a2,2,0,0,0,0-.37,25.42,25.42,0,1,0-50.83,0v6.53H24.1a6,6,0,0,0-6,6V87.74a6,6,0,0,0,6,6H75.9a6,6,0,0,0,6-6V44.21A6,6,0,0,0,75.9,38.21ZM28.5,31.68a21.42,21.42,0,1,1,42.83,0,2,2,0,0,0,.08.54v6H28.5V31.68ZM77.9,87.74a2,2,0,0,1-2,2H24.1a2,2,0,0,1-2-2V44.21a2,2,0,0,1,2-2H75.9a2,2,0,0,1,2,2V87.74Z"/><path d="M50,52.38a8.19,8.19,0,0,0-5.71,14L42.2,77.19a2,2,0,0,0,2,2.38h12a2,2,0,0,0,2-2.44L55.74,66.4A8.19,8.19,0,0,0,50,52.38Zm1.57,13.71,2.12,9.48H46.59L48.44,66a2,2,0,0,0-.82-2,4.18,4.18,0,1,1,4.76,0A2,2,0,0,0,51.57,66.09Z"/></svg>