<svg xmlns="http://www.w3.org/2000/svg" xmlns:xlink="http://www.w3.org/1999/xlink" viewBox="0 0 80 80" version="1.1" x="0px" y="0px"><title>icon-issue</title><desc>Created with Sketch.</desc><g stroke="none" stroke-width="1" fill="none" fill-rule="evenodd"><g transform="translate(-50.000000, -627.000000)" fill="#000000"><g transform="translate(61.000000, 635.000000)"><g><path d="M4.51954603,7.46273288 L4.51954603,7.46273288 L4.51954603,57.8706005 C4.51954603,59.9300973 6.16266623,61.6 8.19034567,61.6 L48.5864513,61.6 C50.6180279,61.6 52.2572509,59.9329552 52.2572509,57.8706005 L52.2572509,7.46273288 C52.2572509,5.403236 50.6141307,3.73333333 48.5864513,3.73333333 L8.19034567,3.73333333 C6.15876906,3.73333333 4.51954603,5.4003781 4.51954603,7.46273288 L4.51954603,7.46273288 Z M0.84741488,7.46273288 C0.84741488,3.34117932 4.12808705,0 8.19034567,0 L48.5864513,0 C52.64184,0 55.9293821,3.34101418 55.9293821,7.46273288 L55.9293821,57.8706005 C55.9293821,61.992154 52.6487099,65.3333333 48.5864513,65.3333333 L8.19034567,65.3333333 C4.13495697,65.3333333 0.84741488,61.9923192 0.84741488,57.8706005 L0.84741488,7.46273288 L0.84741488,7.46273288 Z"/><path d="M12.7112232,31.1589744 L43.2181589,31.1589744 C44.2321899,31.1589744 45.0542245,30.3232392 45.0542245,29.2923077 C45.0542245,28.2613762 44.2321899,27.425641 43.2181589,27.425641 L12.7112232,27.425641 C11.6971922,27.425641 10.8751576,28.2613762 10.8751576,29.2923077 C10.8751576,30.3232392 11.6971922,31.1589744 12.7112232,31.1589744 L12.7112232,31.1589744 Z"/><path d="M12.7112232,41.4974359 L43.2181589,41.4974359 C44.2321899,41.4974359 45.0542245,40.6617008 45.0542245,39.6307692 C45.0542245,38.5998377 44.2321899,37.7641026 43.2181589,37.7641026 L12.7112232,37.7641026 C11.6971922,37.7641026 10.8751576,38.5998377 10.8751576,39.6307692 C10.8751576,40.6617008 11.6971922,41.4974359 12.7112232,41.4974359 L12.7112232,41.4974359 Z"/><path d="M12.7112232,51.8358974 L35.591425,51.8358974 C36.605456,51.8358974 37.4274905,51.0001623 37.4274905,49.9692308 C37.4274905,48.9382992 36.605456,48.1025641 35.591425,48.1025641 L12.7112232,48.1025641 C11.6971922,48.1025641 10.8751576,48.9382992 10.8751576,49.9692308 C10.8751576,51.0001623 11.6971922,51.8358974 12.7112232,51.8358974 L12.7112232,51.8358974 Z"/></g><ellipse cx="15.5076923" cy="12.0615385" rx="3.44615385" ry="3.44615385"/><ellipse cx="41.3538462" cy="12.0615385" rx="3.44615385" ry="3.44615385"/></g></g></g></svg>