<svg xmlns="http://www.w3.org/2000/svg" xmlns:xlink="http://www.w3.org/1999/xlink" version="1.1" x="0px" y="0px" viewBox="0 0 96 96" enable-background="new 0 0 96 96" xml:space="preserve"><path d="M20.569,81.005h14.779V66.226H20.569V81.005z M22.069,74.242h5.139v5.263h-5.139V74.242z M33.848,79.505h-5.14v-5.263h5.14  V79.505z M33.848,72.742h-5.14v-5.017h5.14V72.742z M22.069,67.726h5.139v5.017h-5.139V67.726z"/><path d="M75.431,66.226H60.652v14.779h14.779V66.226z M73.931,72.742h-5.139v-5.017h5.139V72.742z M62.152,67.726h5.14v5.017h-5.14  V67.726z M62.152,74.242h5.14v5.263h-5.14V74.242z M73.931,79.505h-5.139v-5.263h5.139V79.505z"/><path d="M88.094,86.882h-6.639V55.185h6.639v-5.162l-21.147-9.837v-6.515l-18.197-15v-3.568h10.41V7.373H48.75V5.5h-1.5v1.873v7.729  v3.568l-18.197,15v6.515L7.906,50.022v5.162h6.639v31.697H7.906v4.368h80.188V86.882z M57.66,8.873v4.729h-8.91V8.873H57.66z   M65.447,39.914H30.553v-5.14h34.894V39.914z M48,19.996l16.108,13.278H31.892L48,19.996z M29.97,41.414H66.03l17.923,8.337H12.047  L29.97,41.414z M9.406,53.685v-2.434h77.188v2.434H9.406z M16.045,55.185h63.91v31.697H56.127V72.017c0-4.668-5.308-5.99-8.14-6.037  c-2.807,0.047-8.114,1.369-8.114,6.037v14.865H16.045V55.185z M54.627,86.882H48h-6.627V72.017c0-4.362,6.369-4.532,6.614-4.537  c0.066,0.001,6.64,0.161,6.64,4.537V86.882z M86.594,89.75H9.406v-1.368h5.139H48h33.455h5.139V89.75z"/><path d="M48,64.038c1.969,0,3.571-1.603,3.571-3.571S49.969,56.896,48,56.896s-3.571,1.603-3.571,3.571S46.031,64.038,48,64.038z   M48,58.396c1.142,0,2.071,0.929,2.071,2.071S49.142,62.538,48,62.538s-2.071-0.929-2.071-2.071S46.858,58.396,48,58.396z"/></svg>