<svg xmlns="http://www.w3.org/2000/svg" xmlns:xlink="http://www.w3.org/1999/xlink" version="1.1" x="0px" y="0px" viewBox="0 0 100 100" fill="white" style="enable-background:new 0 0 100 100;" xml:space="preserve"><path d="M82.0107422,39.8154297c1.6621094-0.9599609,2.8515625-2.5092773,3.3486328-4.362793  C85.8554688,33.5986328,85.6005859,31.6621094,84.6416016,30c-0.9599609-1.6621094-2.5097656-2.8510742-4.3632812-3.3476562  c-1.8544922-0.496582-3.7900391-0.2412109-5.4521484,0.7177734c-0.119812,0.0691528-0.2315674,0.1478882-0.3463745,0.2230835  l-17.3150635-9.9970703c0.0078125-0.1368408,0.020813-0.2723389,0.020813-0.4110718C57.1855469,13.2231445,53.9619141,10,50,10  s-7.1855469,3.2231445-7.1855469,7.1850586c0,0.1387939,0.0130005,0.274292,0.020813,0.4111938l-17.3155518,9.9967041  c-0.1146851-0.0750732-0.2262573-0.1537476-0.3458862-0.2228394c-1.6630859-0.9589844-3.5976562-1.2143555-5.4521484-0.7177734  C17.8681641,27.1489258,16.3183594,28.3378906,15.3583984,30c-0.9589844,1.6621094-1.2138672,3.5986328-0.7177734,5.4526367  c0.4970703,1.8535156,1.6865234,3.402832,3.3486328,4.362793c0.1195679,0.0689697,0.2444458,0.1187134,0.3662109,0.1800537  v20.0016479c-0.1223145,0.0616455-0.2460938,0.118103-0.3662109,0.187439  c-1.6621094,0.9599609-2.8515625,2.5092773-3.3486328,4.362793C14.1445312,66.4013672,14.3994141,68.3378906,15.3583984,70  c0.9599609,1.6621094,2.5097656,2.8510742,4.3632812,3.3476562c0.6191406,0.1660156,1.2470703,0.2480469,1.8710938,0.2480469  c1.2451172,0,2.4736328-0.3266602,3.5810547-0.9658203c0.119812-0.0691528,0.2315063-0.1478882,0.3463135-0.2230835  l17.3151245,9.9972534c-0.0078125,0.1367798-0.020813,0.2722168-0.020813,0.4108887C42.8144531,86.7768555,46.0380859,90,50,90  s7.1855469-3.2231445,7.1855469-7.1850586c0-0.1386108-0.0130005-0.2739868-0.020813-0.4107056l17.3153687-9.9972534  c0.1146851,0.0751343,0.2263794,0.1538086,0.3460693,0.2229004c1.1074219,0.6391602,2.3359375,0.9658203,3.5810547,0.9658203  c0.6240234,0,1.2519531-0.0820312,1.8710938-0.2480469C82.1318359,72.8510742,83.6816406,71.6621094,84.6416016,70  c0.9589844-1.6621094,1.2138672-3.5986328,0.7177734-5.4526367c-0.4970703-1.8535156-1.6865234-3.402832-3.3486328-4.362793  c-0.1201172-0.0693359-0.2438965-0.1257324-0.3662109-0.1873779V39.9955444  C81.7662964,39.9341431,81.8912354,39.8844604,82.0107422,39.8154297z M78.4101562,28.4052734  c0.4501953,0,0.9042969,0.059082,1.3505859,0.1787109C81.0986328,28.9423828,82.2167969,29.800293,82.9091797,31  s0.8769531,2.5966797,0.5185547,3.9345703c-0.359375,1.3378906-1.2167969,2.4560547-2.4169922,3.1484375  c-2.4755859,1.4311523-5.6533203,0.578125-7.0820312-1.8979492c-0.6923828-1.199707-0.8769531-2.5966797-0.5185547-3.9345703  s1.2167969-2.4555664,2.4160156-3.1479492C76.625,28.6411133,77.5117188,28.4052734,78.4101562,28.4052734z M50,12  c2.859375,0,5.1855469,2.3261719,5.1855469,5.1850586S52.859375,22.3701172,50,22.3701172s-5.1855469-2.3261719-5.1855469-5.1850586  S47.140625,12,50,12z M16.5722656,34.9345703C16.2138672,33.5966797,16.3984375,32.199707,17.0908203,31  s1.8105469-2.0576172,3.1484375-2.4160156c0.4462891-0.1196289,0.8994141-0.1787109,1.3505859-0.1787109  c0.8984375,0,1.7851562,0.2358398,2.5839844,0.6972656c1.1992188,0.6923828,2.0576172,1.8100586,2.4160156,3.1479492  s0.1738281,2.7348633-0.5185547,3.9345703c-1.4287109,2.4760742-4.6044922,3.3291016-7.0820312,1.8979492  C17.7890625,37.390625,16.9316406,36.2724609,16.5722656,34.9345703z M20.2392578,71.4160156  C18.9013672,71.0576172,17.7832031,70.199707,17.0908203,69s-0.8769531-2.5966797-0.5185547-3.9345703  c0.359375-1.3378906,1.2167969-2.4560547,2.4169922-3.1484375c0.8144531-0.4702148,1.7041016-0.6933594,2.5830078-0.6933594  c1.7939453,0,3.5400391,0.9296875,4.4990234,2.5913086c0.6923828,1.199707,0.8769531,2.5966797,0.5185547,3.9345703  s-1.2167969,2.4555664-2.4160156,3.1479492S21.5751953,71.7739258,20.2392578,71.4160156z M50,88  c-2.859375,0-5.1855469-2.3261719-5.1855469-5.1850586S47.140625,77.6298828,50,77.6298828s5.1855469,2.3261719,5.1855469,5.1850586  S52.859375,88,50,88z M83.4277344,65.0654297C83.7861328,66.4033203,83.6015625,67.800293,82.9091797,69  s-1.8105469,2.0576172-3.1484375,2.4160156c-1.3339844,0.3579102-2.734375,0.1743164-3.9345703-0.5185547  c-1.1992188-0.6923828-2.0576172-1.8100586-2.4160156-3.1479492s-0.1738281-2.7348633,0.5185547-3.9345703  c0.9589844-1.6616211,2.7050781-2.5913086,4.4990234-2.5913086c0.8789062,0,1.7685547,0.2231445,2.5830078,0.6933594  C82.2109375,62.609375,83.0683594,63.7275391,83.4277344,65.0654297z M79.6445312,59.3356934  c-2.8833008-0.4968262-5.9026489,0.8015137-7.4482422,3.479248c-0.9589844,1.6621094-1.2138672,3.5986328-0.7177734,5.4521484  c0.2745361,1.0239868,0.7664795,1.949646,1.4260864,2.7396851l-16.1671753,9.3344116  C55.7258911,77.5963135,53.0916748,75.6298828,50,75.6298828c-3.0916138,0-5.7258301,1.9663696-6.7373657,4.7111206  l-16.1670532-9.3344116c0.6595459-0.789978,1.1513672-1.7156372,1.4259033-2.739502  c0.4960938-1.8535156,0.2412109-3.7900391-0.7177734-5.4521484c-1.5453491-2.6773682-4.5658569-3.9754639-7.4482422-3.479248  V40.6593018c0.4038086,0.0695801,0.8091431,0.1170654,1.2138672,0.1170654  c2.484375-0.0004883,4.9052734-1.2890625,6.234375-3.5913086c0.9589844-1.6621094,1.2138672-3.5986328,0.7177734-5.4521484  c-0.2745361-1.0239868-0.7665405-1.9497681-1.4262085-2.7398071l16.1674805-9.3338623  C44.2744141,22.4038696,46.9085083,24.3701172,50,24.3701172c3.0915527,0,5.725647-1.9663086,6.7373047-4.7109985  l16.1671143,9.3342896c-0.6595459,0.789978-1.1514282,1.7156372-1.4259033,2.739502  c-0.4960938,1.8535156-0.2412109,3.7900391,0.7177734,5.4521484c1.3291016,2.3027344,3.7490234,3.5913086,6.234375,3.5913086  c0.4046631,0,0.8099976-0.0474854,1.2138672-0.1170044V59.3356934z"/><path d="M68.0449219,36.9960938c0.0097656-0.440918-0.2705078-0.8388672-0.6884766-0.9755859l-17.0634766-5.5849609  c-0.203125-0.0668945-0.4208984-0.0664062-0.6220703-0.0004883l-17.0888672,5.5849609  c-0.4189453,0.137207-0.6982422,0.534668-0.6894531,0.9750977c0.0009766,0.0537109-0.0019531,0.1557617-0.0058594,0.3017578  c-0.1953125,7.0361328,1.1337891,24.2670898,17.6455078,32.2802734c0.1376953,0.0668945,0.2871094,0.1000977,0.4365234,0.1000977  s0.2988281-0.0336914,0.4365234-0.1005859c16.5058594-8.0102539,17.8388672-25.2407227,17.6455078-32.2768555  C68.046875,37.152832,68.0429688,37.0498047,68.0449219,36.9960938z M49.96875,67.5615234  c-14.7900391-7.4658203-16.2197266-23.0751953-16.0908203-29.8608398l16.1035156-5.2626953l16.078125,5.2626953  C66.1865234,44.4848633,64.7558594,60.097168,49.96875,67.5615234z"/></svg>