<svg xmlns="http://www.w3.org/2000/svg" xmlns:xlink="http://www.w3.org/1999/xlink" version="1.1" x="0px" y="0px" fill="#505050" viewBox="0 0 100 100" style="enable-background:new 0 0 100 100;" xml:space="preserve"><g><path d="M47.9,93.9C48.3,94,48.6,94,49,94s0.7,0,1.1-0.1C75.5,86.8,89,71.6,89,50V10c0-1.7-1-3.1-2.6-3.7c-1.5-0.6-3.3-0.2-4.4,1.1   c-3.8,4.3-9.3,6.7-15,6.7s-11.2-2.4-15-6.7C51.2,6.5,50.1,6,49,6s-2.2,0.5-3,1.3c-3.8,4.3-9.3,6.7-15,6.7s-11.2-2.4-15-6.7   c-1.1-1.2-2.9-1.7-4.4-1.1C10,6.9,9,8.3,9,10v40C9,71.6,22.5,86.8,47.9,93.9z M17,18.3c4.2,2.4,9,3.7,14,3.7c6.6,0,13-2.3,18-6.5   c5,4.2,11.4,6.5,18,6.5c5,0,9.8-1.3,14-3.7V50c0,17.6-10.8,29.6-32,35.8C27.8,79.6,17,67.6,17,50V18.3z"/></g></svg>