<svg xmlns="http://www.w3.org/2000/svg" fill="white" data-name="Layer 1" viewBox="0 0 100 100" x="0px" y="0px"><path d="M76.49,68.63a7.83,7.83,0,0,0-5.42-7.43A1.5,1.5,0,0,1,72,58.35,10.84,10.84,0,1,1,58.33,72,1.5,1.5,0,0,1,61.19,71a7.84,7.84,0,0,0,15.31-2.41Zm17.09,6.31a4.64,4.64,0,0,0,3.84-4.58V66.89a4.64,4.64,0,0,0-3.84-4.58l-3.17-.56a22.75,22.75,0,0,0-1.53-3.68l1.85-2.64a4.64,4.64,0,0,0-.52-6L87.77,47a4.64,4.64,0,0,0-6-.52l-2.64,1.85A24.26,24.26,0,0,0,75.87,47a1.5,1.5,0,0,0-1,2.84,19.73,19.73,0,0,1,3.61,1.58,1.5,1.5,0,0,0,1.61-.07L83.54,49a1.64,1.64,0,0,1,2.11.18l2.45,2.45a1.65,1.65,0,0,1,.19,2.11l-2.39,3.4a1.5,1.5,0,0,0-.07,1.61,19.71,19.71,0,0,1,2,4.73A1.5,1.5,0,0,0,89,64.56l4.09.72a1.64,1.64,0,0,1,1.36,1.62v3.47A1.64,1.64,0,0,1,93.07,72L89,72.7a1.5,1.5,0,0,0-1.19,1.09,19.76,19.76,0,0,1-2,4.74,1.5,1.5,0,0,0,.07,1.61l2.39,3.4a1.64,1.64,0,0,1-.18,2.11L85.64,88.1a1.64,1.64,0,0,1-2.11.18l-3.4-2.39a1.5,1.5,0,0,0-1.61-.07,19.69,19.69,0,0,1-4.73,2A1.5,1.5,0,0,0,72.7,89L72,93.07a1.64,1.64,0,0,1-1.62,1.36H66.89a1.64,1.64,0,0,1-1.62-1.36L64.56,89a1.5,1.5,0,0,0-1.09-1.19,19.69,19.69,0,0,1-4.73-2,1.5,1.5,0,0,0-1.61.07l-3.4,2.39a1.64,1.64,0,0,1-2.11-.18l-2.45-2.45A1.64,1.64,0,0,1,49,83.54l2.39-3.4a1.5,1.5,0,0,0,.07-1.61,19.8,19.8,0,0,1-1.58-3.61,1.5,1.5,0,0,0-2.84,1,24.3,24.3,0,0,0,1.36,3.31l-1.85,2.64a4.64,4.64,0,0,0,.52,6l2.45,2.45a4.64,4.64,0,0,0,6,.52l2.64-1.85a22.68,22.68,0,0,0,3.68,1.53l.56,3.17a4.64,4.64,0,0,0,4.58,3.84h3.47a4.64,4.64,0,0,0,4.58-3.84l.56-3.17a22.68,22.68,0,0,0,3.68-1.53l2.64,1.85a4.64,4.64,0,0,0,6-.52l2.45-2.45a4.64,4.64,0,0,0,.52-6l-1.85-2.64a22.7,22.7,0,0,0,1.53-3.68ZM11,55.69l2.49-3.55a28.41,28.41,0,0,1-2.1-5.06l-4.27-.75a5.48,5.48,0,0,1-4.54-5.41v-4.4a5.49,5.49,0,0,1,4.54-5.41l4.27-.75a28.43,28.43,0,0,1,2.1-5.06L11,21.76a5.49,5.49,0,0,1,.61-7l3.12-3.12a5.48,5.48,0,0,1,7-.61l3.55,2.49a28.48,28.48,0,0,1,5.06-2.1l.75-4.27a5.49,5.49,0,0,1,5.41-4.54h4.4a5.49,5.49,0,0,1,5.41,4.54l.75,4.27a28.4,28.4,0,0,1,5.06,2.1L55.69,11a5.48,5.48,0,0,1,7,.61l3.11,3.12a5.48,5.48,0,0,1,.61,7L64,25.31a28.47,28.47,0,0,1,2.1,5.06l4.27.75a5.49,5.49,0,0,1,4.54,5.41v4.4a5.48,5.48,0,0,1-4.54,5.41l-4.27.75A28.4,28.4,0,0,1,64,52.14l2.49,3.55a5.49,5.49,0,0,1-.61,7l-3.11,3.11a5.49,5.49,0,0,1-7,.61L52.14,64a28.38,28.38,0,0,1-5.06,2.1l-.75,4.27a5.49,5.49,0,0,1-5.41,4.54h-4.4a5.49,5.49,0,0,1-5.41-4.54l-.75-4.27A28.44,28.44,0,0,1,25.31,64l-3.55,2.49a5.48,5.48,0,0,1-7-.61L11.6,62.73A5.48,5.48,0,0,1,11,55.69Zm2.73,4.92,3.11,3.11A2.49,2.49,0,0,0,20,64l4.32-3A1.5,1.5,0,0,1,26,60.9a25.47,25.47,0,0,0,6.11,2.54,1.5,1.5,0,0,1,1.09,1.19l.91,5.19a2.49,2.49,0,0,0,2.46,2.06h4.4a2.49,2.49,0,0,0,2.46-2.06l.91-5.19a1.5,1.5,0,0,1,1.09-1.19,25.47,25.47,0,0,0,6.11-2.54A1.5,1.5,0,0,1,53.1,61l4.32,3a2.49,2.49,0,0,0,3.19-.28l3.11-3.11A2.49,2.49,0,0,0,64,57.42L61,53.1a1.5,1.5,0,0,1-.07-1.61,25.42,25.42,0,0,0,2.53-6.11,1.5,1.5,0,0,1,1.19-1.09l5.19-.91a2.49,2.49,0,0,0,2.06-2.46v-4.4a2.49,2.49,0,0,0-2.06-2.46l-5.19-.91a1.5,1.5,0,0,1-1.19-1.09A25.42,25.42,0,0,0,60.9,26,1.5,1.5,0,0,1,61,24.35L64,20a2.49,2.49,0,0,0-.28-3.19l-3.11-3.12a2.49,2.49,0,0,0-3.19-.28l-4.32,3a1.5,1.5,0,0,1-1.61.07A25.44,25.44,0,0,0,45.38,14a1.5,1.5,0,0,1-1.09-1.19l-.91-5.19a2.49,2.49,0,0,0-2.46-2.06h-4.4a2.49,2.49,0,0,0-2.46,2.06l-.91,5.19A1.5,1.5,0,0,1,32.07,14,25.49,25.49,0,0,0,26,16.55a1.5,1.5,0,0,1-1.61-.07l-4.32-3a2.49,2.49,0,0,0-3.19.28l-3.11,3.12A2.49,2.49,0,0,0,13.45,20l3,4.32A1.5,1.5,0,0,1,16.55,26,25.4,25.4,0,0,0,14,32.07a1.5,1.5,0,0,1-1.19,1.09l-5.19.91a2.49,2.49,0,0,0-2.06,2.46v4.4a2.49,2.49,0,0,0,2.06,2.46l5.19.91A1.5,1.5,0,0,1,14,45.38a25.39,25.39,0,0,0,2.53,6.11,1.5,1.5,0,0,1-.07,1.61l-3,4.32A2.49,2.49,0,0,0,13.72,60.61ZM25.34,38.72A13.39,13.39,0,1,1,38.72,52.11,13.4,13.4,0,0,1,25.34,38.72Zm3,0A10.39,10.39,0,1,0,38.72,28.34,10.4,10.4,0,0,0,28.34,38.72Z"/></svg>