<svg xmlns="http://www.w3.org/2000/svg" fill="#929292" viewBox="0 0 64 64" x="0px" y="0px"><g data-name="outline create copy"><path d="M48,16a1,1,0,0,0-1.33-.94L29.83,21H20a4,4,0,0,0-3.86,3H15a3,3,0,0,0-3,3v2a3,3,0,0,0,3,3h1a4,4,0,0,0,4,4h.07l.86,11.15a2,2,0,0,0,2,1.85H27a2,2,0,0,0,2-2V36h.83l16.84,5.94A1,1,0,0,0,47,42a1,1,0,0,0,1-1ZM15,30a1,1,0,0,1-1-1V27a1,1,0,0,1,1-1h1v4Zm3,2V25a2,2,0,0,1,2-2h9V34H20A2,2,0,0,1,18,32Zm9,6H25v2h2v2H25v2h2v3H22.93l-.85-11H27Zm19,1.59-15-5.3V22.71l15-5.3Z"/><rect x="59" y="31" width="3" height="2"/><rect x="2" y="31" width="3" height="2"/><rect x="58.03" y="23.62" width="3" height="2" transform="translate(-4.34 16.25) rotate(-15)"/><rect x="2.97" y="38.38" width="3" height="2" transform="translate(-10.04 2.5) rotate(-15)"/><rect x="55.18" y="16.75" width="3" height="2" transform="translate(-1.28 30.71) rotate(-29.99)"/><rect x="5.82" y="45.25" width="3" height="2" transform="translate(-22.14 9.85) rotate(-29.99)"/><rect x="50.65" y="10.85" width="3" height="2" transform="translate(6.9 40.35) rotate(-45)"/><rect x="10.35" y="51.15" width="3" height="2" transform="translate(-33.41 23.65) rotate(-45)"/><rect x="44.75" y="6.32" width="3" height="2" transform="translate(16.79 43.71) rotate(-60)"/><rect x="16.25" y="55.68" width="3" height="2" transform="translate(-40.21 43.71) rotate(-60)"/><rect x="37.88" y="3.47" width="3" height="2" transform="translate(24.87 41.35) rotate(-75)"/><rect x="23.12" y="58.53" width="3" height="2" transform="translate(-39.25 67.91) rotate(-75)"/><rect x="31" y="2" width="2" height="3"/><rect x="31" y="59" width="2" height="3"/><rect x="23.62" y="2.97" width="2" height="3" transform="translate(-0.32 6.53) rotate(-15)"/><rect x="38.38" y="58.03" width="2" height="3" transform="translate(-14.07 12.22) rotate(-15)"/><rect x="16.75" y="5.82" width="2" height="3" transform="translate(-1.28 9.86) rotate(-30)"/><rect x="45.25" y="55.18" width="2" height="3" transform="translate(-22.14 30.72) rotate(-30)"/><rect x="10.85" y="10.35" width="2" height="3" transform="translate(-4.91 11.85) rotate(-44.99)"/><rect x="51.15" y="50.65" width="2" height="3" transform="translate(-21.6 52.14) rotate(-44.99)"/><rect x="6.32" y="16.25" width="2" height="3" transform="translate(-11.71 15.21) rotate(-60)"/><rect x="55.68" y="44.75" width="2" height="3" transform="translate(-11.71 72.21) rotate(-60)"/><rect x="3.47" y="23.12" width="2" height="3" transform="translate(-20.47 22.57) rotate(-75)"/><rect x="58.53" y="37.88" width="2" height="3" transform="translate(6.09 86.69) rotate(-75)"/><rect x="20" y="14" width="2" height="2"/><rect x="24" y="14" width="2" height="2"/><rect x="22" y="12" width="2" height="2"/><rect x="22" y="16" width="2" height="2"/><rect x="36.88" y="9.29" width="2" height="2" transform="translate(3.82 29.8) rotate(-45)"/><rect x="39.71" y="12.12" width="2" height="2" transform="translate(2.64 32.63) rotate(-45)"/><rect x="39.71" y="9.29" width="2" height="2" transform="translate(4.64 31.8) rotate(-45)"/><rect x="36.88" y="12.12" width="2" height="2" transform="translate(1.82 30.63) rotate(-45.01)"/><path d="M39,46a3,3,0,0,0,0,6V50a1,1,0,1,1,1-1h2A3,3,0,0,0,39,46Z"/><path d="M55,28a2,2,0,0,0-4,0h2v2A2,2,0,0,0,55,28Z"/><rect x="52" y="40" width="2" height="2"/><circle cx="14" cy="45" r="2"/></g></svg>