<svg xmlns="http://www.w3.org/2000/svg" xmlns:xlink="http://www.w3.org/1999/xlink" version="1.1" x="0px" y="0px" viewBox="0 0 91 91" enable-background="new 0 0 91 91" fill="white" xml:space="preserve"><g><path d="M90.722,4.6c0-1.387-1.125-2.512-2.514-2.512L3.079,2.08c-0.666,0-1.305,0.266-1.775,0.736   C0.831,3.287,0.567,3.928,0.567,4.594v81.725c0,1.387,1.125,2.512,2.512,2.512h77.26c5.725,0,10.383-4.658,10.383-10.385V4.6z    M85.696,78.445c0,2.955-2.404,5.359-5.357,5.359H5.593V7.105l80.104,0.008V78.445z"/><path d="M45.644,78.186c18.045,0,32.729-14.684,32.729-32.73c0-18.043-14.684-32.723-32.729-32.723   c-18.043,0-32.723,14.68-32.723,32.723C12.921,63.502,27.601,78.186,45.644,78.186z M45.644,17.758   c15.275,0,27.703,12.426,27.703,27.697c0,15.275-12.428,27.705-27.703,27.705c-15.271,0-27.697-12.43-27.697-27.705   C17.946,30.184,30.372,17.758,45.644,17.758z"/><path d="M45.646,62.898c9.619,0,17.445-7.826,17.445-17.443s-7.826-17.443-17.445-17.443S28.2,35.838,28.2,45.455   S36.026,62.898,45.646,62.898z M45.646,33.037c6.848,0,12.42,5.57,12.42,12.418s-5.572,12.418-12.42,12.418   s-12.42-5.57-12.42-12.418S38.798,33.037,45.646,33.037z"/><path d="M15.438,17.754c0.67,0,1.301-0.26,1.77-0.729c0.48-0.48,0.74-1.111,0.74-1.781c0-0.66-0.27-1.309-0.74-1.779   c-0.93-0.93-2.619-0.93-3.549,0c-0.471,0.471-0.74,1.119-0.74,1.779c0,0.67,0.27,1.301,0.74,1.781   C14.128,17.494,14.759,17.754,15.438,17.754z"/><path d="M15.438,78.174c0.67,0,1.301-0.26,1.77-0.729c0.48-0.48,0.74-1.111,0.74-1.781c0-0.66-0.27-1.309-0.74-1.779   c-0.93-0.93-2.619-0.93-3.549,0c-0.471,0.471-0.74,1.119-0.74,1.779c0,0.67,0.26,1.301,0.74,1.781   C14.128,77.914,14.759,78.174,15.438,78.174z"/><path d="M75.858,17.754c0.67,0,1.301-0.26,1.779-0.729c0.471-0.48,0.73-1.111,0.73-1.781c0-0.66-0.27-1.309-0.73-1.779   c-0.93-0.93-2.619-0.93-3.559,0c-0.471,0.471-0.73,1.119-0.73,1.779c0,0.67,0.26,1.301,0.73,1.781   C74.558,17.494,75.188,17.754,75.858,17.754z"/><path d="M74.079,73.885c-0.471,0.471-0.73,1.119-0.73,1.779c0,0.67,0.26,1.301,0.73,1.781c0.479,0.469,1.109,0.729,1.779,0.729   s1.301-0.26,1.779-0.729c0.471-0.48,0.73-1.111,0.73-1.781c0-0.66-0.27-1.309-0.73-1.779   C76.698,72.955,75.028,72.955,74.079,73.885z"/></g></svg>