<svg xmlns="http://www.w3.org/2000/svg" xmlns:xlink="http://www.w3.org/1999/xlink" version="1.1" x="0px" y="0px" fill="#505050" viewBox="0 0 1000 1000" enable-background="new 0 0 1000 1000" xml:space="preserve"><path d="M886.9,268l-379.4-219c-4.6-2.7-10.4-2.7-15,0L113.1,268c-4.6,2.7-7.5,7.6-7.5,13V719c0,5.4,2.9,10.3,7.5,13l379.4,219  c2.3,1.3,4.9,2,7.5,2s5.2-0.7,7.5-2l379.4-219c4.6-2.7,7.5-7.6,7.5-13l0-438.1C894.4,275.6,891.5,270.7,886.9,268z M864.4,692.9  l-153.7-89.7l153.7-266.2L864.4,692.9z M500,311.2l162.4,281.3l-324.8,0L500,311.2z M310.4,579.6L146.6,296h327.6L310.4,579.6z   M664.9,622.5L500,908.1L335.1,622.5L664.9,622.5z M525.8,296h327.6L689.6,579.6L525.8,296z M515,266V87.9L823.4,266H515z M485,266  H176.6L485,87.9V266z M289.3,603.2l-153.7,89.7v-356L289.3,603.2z M304.3,629.1L459,897.1L150.5,719L304.3,629.1z M695.7,629.1  L849.5,719L541,897.1L695.7,629.1z"/></svg>