<svg xmlns="http://www.w3.org/2000/svg" xmlns:xlink="http://www.w3.org/1999/xlink" version="1.1" x="0px" y="0px" viewBox="0 0 100 100" style="enable-background:new 0 0 100 100;" xml:space="preserve"><path d="M68.9,21.5V6.8c0-3.2-2.7-6-6-6H20.9c-3.2,0-6,2.7-6,6v7.5c-1,0-1.8,0.8-1.8,1.8v8.3c0,1,0.8,1.8,1.8,1.8v2.6  c-1,0-1.8,0.8-1.8,1.8v2.8c0,1,0.8,1.8,1.8,1.8v57.7c0,3.2,2.7,6,6,6H37c0.3-0.4,0.7-0.7,1.2-0.7h7.4c0.5,0,1,0.3,1.2,0.7h16.1  c3.2,0,6-2.7,6-6v-3.2h-3.1v3.2c0,1.7-1.2,2.9-2.9,2.9H20.9c-1.7,0-2.9-1.2-2.9-2.9V6.8c0-1.7,1.2-2.9,2.9-2.9h5.9L27,8.6  c0,1,0.8,1.7,1.7,1.7h26.3c1,0,1.7-0.8,1.7-1.7l0.3-4.7h5.8c1.7,0,2.9,1.2,2.9,2.9v14.7H68.9z"/><path d="M58.5,83.7c-15.5,0-28-12.6-28-28s12.6-28,28-28s28,12.6,28,28S74,83.7,58.5,83.7z M58.5,31c-13.6,0-24.6,11-24.6,24.6  c0,13.6,11,24.6,24.6,24.6c13.6,0,24.6-11,24.6-24.6C83.1,42.1,72,31,58.5,31z"/><path d="M52.5,65.6c-0.5,0.1-1-0.1-1.3-0.5l-8.6-8.9c-0.6-0.6-0.6-1.6,0-2.2c0.6-0.6,1.6-0.6,2.2,0l7.5,7.8l19.5-17.2  c0.6-0.6,1.6-0.5,2.2,0.1c0.6,0.6,0.5,1.6-0.1,2.2L53.4,65.3C53.1,65.5,52.8,65.6,52.5,65.6z"/></svg>