<svg xmlns="http://www.w3.org/2000/svg" data-name="Layer 1" viewBox="0 0 48 48" x="0px" y="0px"><path d="M19.49,15.64c-.38-.81-.78-1.62-1.18-2.39A47.07,47.07,0,0,0,10.92,2.89a46.79,46.79,0,0,0-7.4,10.36c-2.27,4.39-4.6,9.65-3,14.56,1.32,4,5.84,7,10.38,7l.29,0c0-4.07,1.73-8.15,3.74-12A47.8,47.8,0,0,1,19.49,15.64Z"/><path d="M24,13.22a47,47,0,0,0-7.39,10.37c-2.27,4.39-4.61,9.64-3,14.56,1.31,4,5.84,7,10.37,7s9.06-3,10.37-7c1.63-4.92-.71-10.17-3-14.56A47,47,0,0,0,24,13.22Z"/><path d="M44.48,13.25a46.79,46.79,0,0,0-7.4-10.36,47.07,47.07,0,0,0-7.39,10.36c-.4.77-.8,1.58-1.18,2.39a47.8,47.8,0,0,1,4.54,7.09c2,3.88,3.76,8,3.73,12l.3,0c4.54,0,9.06-3,10.38-7C49.08,22.9,46.75,17.64,44.48,13.25Z"/></svg>