<svg xmlns="http://www.w3.org/2000/svg" xmlns:xlink="http://www.w3.org/1999/xlink" version="1.1" x="0px" y="0px" viewBox="0 0 100 100" enable-background="new 0 0 100 100" fill="white" xml:space="preserve"><g><path fill="none" d="M51.222,51.222v15.111c8.255,0.219,16.13,2.649,22.95,7.01c3.532-6.432,5.641-14.041,5.836-22.122H51.222z"/><path fill="none" d="M72.93,75.449c-6.448-4.141-13.897-6.454-21.708-6.673v23.035C60.102,89.788,67.749,83.757,72.93,75.449z"/><path fill="none" d="M48.779,91.841V68.777c-7.834,0.219-15.289,2.537-21.74,6.69C32.224,83.81,39.885,89.852,48.779,91.841z"/><path fill="none" d="M51.222,33.666v15.112h28.787c-0.191-8.125-2.272-15.734-5.78-22.155C67.4,31.007,59.51,33.447,51.222,33.666z   "/><path fill="none" d="M26.975,24.49c6.469,4.18,13.954,6.513,21.804,6.734V8.162C39.784,10.167,32.13,16.167,26.975,24.49z"/><path fill="none" d="M51.222,8.196v23.027c7.847-0.219,15.315-2.545,21.774-6.713C67.844,16.223,60.203,10.236,51.222,8.196z"/><path fill="none" d="M48.779,66.333V51.222H19.984c0.194,8.087,2.296,15.702,5.816,22.137   C32.622,68.986,40.502,66.552,48.779,66.333z"/><path fill="none" d="M48.779,48.778V33.667c-8.289-0.22-16.194-2.668-23.033-7.063c-3.498,6.426-5.573,14.041-5.763,22.175H48.779z   "/><path fill="none" d="M23.781,74.732c-3.786-6.831-6.043-14.921-6.24-23.51H7.474c0.303,10.666,4.542,20.36,11.322,27.676   C20.372,77.379,22.036,75.989,23.781,74.732z"/><path fill="none" d="M74.94,76.819c-4.046,6.451-9.512,11.607-15.876,14.756c7.827-1.705,14.852-5.57,20.426-10.937   C78.05,79.252,76.532,77.975,74.94,76.819z"/><path fill="none" d="M76.25,25.246c3.773,6.818,6.008,14.902,6.202,23.532h10.073c-0.303-10.666-4.542-20.36-11.322-27.676   C79.638,22.612,77.984,23.995,76.25,25.246z"/><path fill="none" d="M82.451,51.222c-0.198,8.581-2.461,16.664-6.258,23.492c1.755,1.262,3.428,2.658,5.01,4.184   c6.78-7.316,11.018-17.01,11.322-27.675H82.451z"/><path fill="none" d="M59.21,8.459c6.367,3.145,11.788,8.266,15.795,14.674c1.567-1.144,3.064-2.403,4.485-3.771   C73.951,14.028,66.978,10.18,59.21,8.459z"/><path fill="none" d="M24.965,23.114c3.965-6.363,9.318-11.457,15.603-14.603c-7.679,1.745-14.572,5.569-20.059,10.851   C21.922,20.721,23.408,21.976,24.965,23.114z"/><path fill="none" d="M25.032,76.841c-1.581,1.151-3.09,2.418-4.522,3.797c5.524,5.319,12.475,9.161,20.219,10.889   C34.44,88.377,29.039,83.249,25.032,76.841z"/><path fill="none" d="M17.54,48.778c0.193-8.638,2.423-16.729,6.185-23.55c-1.725-1.246-3.37-2.624-4.928-4.125   c-6.78,7.316-11.019,17.01-11.322,27.676H17.54z"/><path d="M50.001,5C25.187,5,5,25.187,5,50c0,24.813,20.187,45,45.001,45C74.813,95,95,74.813,95,50C95,25.187,74.813,5,50.001,5z    M48.779,31.224c-7.85-0.22-15.335-2.554-21.804-6.734c5.155-8.323,12.809-14.323,21.804-16.328V31.224z M48.779,33.667v15.112   H19.983c0.19-8.133,2.266-15.749,5.763-22.175C32.585,30.999,40.49,33.447,48.779,33.667z M48.779,51.222v15.112   c-8.277,0.219-16.157,2.653-22.979,7.025c-3.521-6.435-5.622-14.05-5.816-22.137H48.779z M48.779,68.777v23.064   c-8.894-1.989-16.555-8.031-21.74-16.374C33.49,71.314,40.945,68.996,48.779,68.777z M51.222,68.777   c7.811,0.219,15.26,2.531,21.708,6.673c-5.182,8.307-12.828,14.339-21.708,16.362V68.777z M51.222,66.333V51.222h28.786   c-0.195,8.081-2.303,15.69-5.836,22.122C67.353,68.982,59.477,66.552,51.222,66.333z M51.222,48.778V33.666   c8.288-0.219,16.178-2.659,23.007-7.043c3.508,6.422,5.589,14.03,5.78,22.155H51.222z M51.222,31.223V8.196   c8.981,2.04,16.622,8.026,21.774,16.314C66.537,28.678,59.07,31.004,51.222,31.223z M59.21,8.459   c7.768,1.721,14.741,5.569,20.28,10.903c-1.421,1.368-2.918,2.627-4.485,3.771C70.998,16.724,65.577,11.604,59.21,8.459z    M24.965,23.114c-1.557-1.138-3.043-2.393-4.455-3.752c5.486-5.282,12.379-9.106,20.059-10.851   C34.284,11.657,28.93,16.751,24.965,23.114z M23.725,25.228c-3.762,6.822-5.992,14.912-6.185,23.55H7.474   c0.303-10.666,4.542-20.36,11.322-27.676C20.354,22.604,22,23.982,23.725,25.228z M17.541,51.222   c0.197,8.589,2.454,16.679,6.24,23.51c-1.745,1.257-3.41,2.647-4.984,4.166c-6.78-7.316-11.019-17.01-11.322-27.676H17.541z    M25.032,76.841c4.007,6.409,9.408,11.536,15.696,14.686c-7.744-1.728-14.694-5.569-20.219-10.889   C21.942,79.259,23.452,77.992,25.032,76.841z M74.94,76.819c1.591,1.156,3.11,2.432,4.55,3.819   c-5.574,5.367-12.599,9.232-20.426,10.937C65.428,88.426,70.894,83.271,74.94,76.819z M76.194,74.713   c3.797-6.827,6.06-14.911,6.258-23.492h10.074c-0.303,10.665-4.542,20.359-11.322,27.675   C79.622,77.372,77.948,75.975,76.194,74.713z M82.452,48.778c-0.194-8.63-2.43-16.714-6.202-23.532   c1.733-1.251,3.388-2.634,4.953-4.144c6.78,7.316,11.019,17.01,11.322,27.676H82.452z"/></g></svg>